<?xml version="1.0" encoding="UTF-8" standalone="no"?>
<svg
   id="svg919"
   version="1.1"
   viewBox="0 0 43.2647 43.2647"
   height="43.2647mm"
   width="43.2647mm">
  <defs
     id="defs913" />
  <metadata
     id="metadata916">
  </metadata>
  <g
     transform="translate(-146.1705,-198.3114)"
     id="layer1">
    <g
       transform="translate(-0.0185991,0.0509009)"
       id="g1529">
      <path
         id="path1545"
         d="m 146.1891,219.8928 v -21.6323 h 21.6323 21.6324 v 21.6323 21.6324 h -21.6324 -21.6323 z"
         style="fill:#fefefe;stroke-width:0.0846667" />
      <path
         id="path1543"
         d="m 165.9164,240.9171 c -1.3185,-0.1136 -1.8035,-0.4295 -1.7933,-1.1682 0.01,-0.4238 0.1775,-0.7119 0.5337,-0.8961 0.2329,-0.1205 0.3822,-0.1241 1.3186,-0.032 2.1818,0.2145 4.7932,-0.012 6.9075,-0.5983 1.0496,-0.2913 1.336,-0.3099 1.6763,-0.1089 0.6981,0.4124 0.6293,1.437 -0.1205,1.7934 -0.4779,0.2272 -1.756,0.561 -2.9343,0.7663 -1.8791,0.3274 -3.6966,0.4067 -5.588,0.2438 z m -5.5033,-1.2528 c -2.387,-0.9152 -4.6799,-2.3067 -6.6136,-4.0137 -0.7075,-0.6246 -0.8371,-0.8288 -0.8371,-1.3196 0,-0.6215 0.6667,-1.1069 1.279,-0.9313 0.1428,0.041 0.5326,0.3172 0.8662,0.6138 1.8571,1.6512 3.8439,2.8557 6.112,3.7055 0.5111,0.1914 1.015,0.428 1.1198,0.5257 0.4078,0.3799 0.3989,1.1077 -0.018,1.4998 -0.3602,0.3383 -0.8724,0.3168 -1.9079,-0.08 z m 16.6229,-1.1108 c -0.3121,-0.09 -0.7014,-0.5157 -0.7149,-0.7813 -0.036,-0.7041 0.086,-0.8628 1.1481,-1.4899 0.4815,-0.2844 1.27,-0.8107 1.7522,-1.1695 1.0234,-0.7615 2.787,-2.482 3.538,-3.4513 0.6237,-0.8051 0.8556,-0.9726 1.3477,-0.9732 0.3062,0 0.4167,0.048 0.6561,0.2874 0.2507,0.2506 0.2879,0.3426 0.2879,0.7114 0,0.3951 -0.041,0.4764 -0.6066,1.2149 -0.8472,1.1053 -2.7219,2.9458 -3.8923,3.8213 -0.995,0.7442 -2.7336,1.8385 -2.921,1.8385 -0.056,0 -0.1523,0.016 -0.2143,0.035 -0.062,0.019 -0.2335,0 -0.3809,-0.043 z m -8.7559,-3.4446 c -0.4938,-0.4412 -0.4057,-1.3724 0.1566,-1.6564 0.1273,-0.064 0.5934,-0.1617 1.0357,-0.2165 1.4443,-0.179 3.1582,-0.6928 4.4085,-1.3217 0.584,-0.2937 1.7584,-1.0543 2.3745,-1.5377 0.2674,-0.2098 0.6043,-0.3939 0.7701,-0.4208 0.7856,-0.1275 1.4176,0.765 1.0479,1.4798 -0.2404,0.465 -1.9006,1.6545 -3.267,2.3408 -1.7948,0.9015 -4.2396,1.5681 -5.751,1.5681 -0.44,0 -0.5486,-0.033 -0.7753,-0.2356 z m -4.3754,-0.1858 c -2.3509,-0.6027 -4.587,-1.8175 -6.5244,-3.5448 -0.7071,-0.6304 -0.8619,-0.8767 -0.8619,-1.3721 0,-0.2866 0.053,-0.4043 0.2879,-0.6392 0.2516,-0.2516 0.3419,-0.2878 0.7169,-0.2878 0.4101,0 0.456,0.025 1.0456,0.5601 1.9538,1.7748 3.7847,2.7554 6.247,3.3458 1.1684,0.2802 1.48,0.4726 1.5736,0.9717 0.071,0.3803 -0.099,0.8433 -0.3863,1.0476 -0.3363,0.2395 -0.9379,0.2162 -2.0984,-0.081 z m -12.7828,-2.3423 c -0.6036,-0.2976 -2.3974,-3.4719 -3.1325,-5.5434 -0.4234,-1.1932 -0.8824,-2.9985 -0.89,-3.5007 -0.013,-0.8733 0.9245,-1.3943 1.6192,-0.8997 0.2942,0.2095 0.3541,0.3631 0.6477,1.6585 0.1267,0.5588 0.3626,1.397 0.5243,1.8627 0.4164,1.1992 1.4296,3.2318 2.1312,4.2756 0.4789,0.7126 0.5979,0.9537 0.5997,1.2146 0,0.4152 -0.2123,0.7794 -0.5571,0.9431 -0.343,0.1627 -0.5966,0.1598 -0.9425,-0.011 z m 34.3059,-3.0358 c -0.3235,-0.1653 -0.546,-0.5331 -0.546,-0.9024 0,-0.1559 0.1885,-0.7284 0.419,-1.2723 0.9377,-2.2125 1.5283,-4.915 1.5283,-6.9928 0,-1.032 0.3067,-1.4583 1.0489,-1.4583 0.4858,0 0.8573,0.2947 0.9892,0.7847 0.1803,0.6693 -0.1206,3.4804 -0.5676,5.3045 -0.4195,1.7119 -1.2919,3.9312 -1.7092,4.3486 -0.2992,0.2992 -0.7899,0.3785 -1.1626,0.188 z m -6.0432,-0.1958 c -0.507,-0.078 -0.9133,-0.6483 -0.8169,-1.1461 0.029,-0.1468 0.264,-0.5908 0.5235,-0.9866 0.9041,-1.3793 1.532,-2.9118 1.908,-4.6567 0.1618,-0.7508 0.1922,-1.1522 0.1955,-2.5823 0,-1.0642 -0.038,-1.9193 -0.1085,-2.3015 -0.101,-0.5459 -0.098,-0.6393 0.033,-0.9138 0.3722,-0.7843 1.6329,-0.7423 1.8913,0.063 0.2821,0.8792 0.4094,2.9896 0.2694,4.4647 -0.2451,2.5825 -1.0839,5.0149 -2.4379,7.0697 -0.5754,0.8731 -0.8784,1.0789 -1.457,0.9897 z m -24.7213,-1.3636 c -0.3375,-0.3153 -1.1824,-2.0604 -1.5661,-3.2347 -0.5816,-1.7801 -0.8823,-4.1346 -0.7386,-5.7838 0.072,-0.8208 0.081,-0.8479 0.3797,-1.1219 0.2493,-0.2285 0.3753,-0.2807 0.6771,-0.2807 0.3925,0 0.7364,0.1991 0.9127,0.5285 0.058,0.1084 0.1017,0.8006 0.1131,1.7926 0.028,2.4134 0.3945,3.9914 1.4012,6.0275 0.6239,1.262 0.6594,1.591 0.2188,2.0315 -0.2505,0.2506 -0.3427,0.2879 -0.7107,0.2879 -0.3502,0 -0.4682,-0.042 -0.6872,-0.2469 z m 12.4808,-0.7435 c -1.5679,-0.2079 -2.5533,-1.0464 -3.0153,-2.5656 -0.1591,-0.5233 -0.1939,-0.8385 -0.1975,-1.7915 0,-0.6361 0.027,-1.1885 0.066,-1.2277 0.092,-0.093 1.4028,-0.1466 1.8717,-0.076 l 0.3663,0.055 0.034,1.0758 c 0.039,1.2296 0.1708,1.6205 0.6542,1.9425 0.3751,0.2499 1.1838,0.2666 1.6186,0.034 0.717,-0.3844 0.9517,-1.6579 0.4675,-2.5363 -0.3205,-0.5814 -0.6702,-0.8508 -1.7719,-1.3652 -1.6661,-0.7781 -2.4882,-1.4323 -2.8813,-2.2931 -0.6066,-1.3287 -0.4135,-3.5175 0.4051,-4.5907 0.6466,-0.8478 1.5065,-1.2494 2.8056,-1.3104 1.3991,-0.066 2.3378,0.2326 3.0861,0.9808 0.7252,0.7253 1.1357,1.9408 1.0871,3.2193 l -0.024,0.6454 h -1.143 -1.143 l -0.052,-0.6773 c -0.062,-0.8057 -0.2116,-1.1985 -0.5741,-1.5034 -0.3113,-0.262 -0.709,-0.3555 -1.2516,-0.2944 -0.6845,0.077 -1.0819,0.5281 -1.1766,1.335 -0.1275,1.087 0.3244,1.6704 1.7991,2.3221 2.5274,1.1171 3.3558,2.1181 3.4709,4.1943 0.1026,1.8485 -0.6239,3.4123 -1.8681,4.021 -0.7433,0.3636 -1.768,0.5221 -2.6337,0.4073 z m -19.7345,-6.4113 c -0.5199,-0.2263 -0.6278,-0.4775 -0.6278,-1.4607 0,-2.2987 0.5408,-4.9666 1.4819,-7.3105 0.6922,-1.724 0.8652,-1.909 1.7501,-1.8709 0.2984,0.013 0.7266,0.4485 0.794,0.8076 0.042,0.2244 -0.034,0.4923 -0.3679,1.2879 -1.0055,2.3995 -1.4547,4.3493 -1.593,6.9148 -0.065,1.2056 -0.1519,1.4149 -0.6796,1.6354 -0.3401,0.1421 -0.424,0.1417 -0.7577,0 z m 39.5574,-3.6115 c -0.3122,-0.2456 -0.3504,-0.3385 -0.6033,-1.466 -0.4743,-2.1147 -1.4769,-4.4771 -2.6536,-6.2528 -0.6785,-1.0239 -0.7469,-1.2043 -0.6119,-1.6134 0.1452,-0.4399 0.4421,-0.6699 0.9246,-0.7163 0.3824,-0.037 0.4413,-0.017 0.7175,0.245 1.1876,1.1252 3.0326,5.081 3.6603,7.848 0.2401,1.0585 0.2513,1.2912 0.078,1.6261 -0.2561,0.4952 -1.0743,0.6735 -1.5117,0.3294 z m -33.2426,-1.2382 c -0.3639,-0.187 -0.6158,-0.6436 -0.5604,-1.0157 0.1188,-0.7975 1.2727,-3.0345 2.2404,-4.3436 1.0367,-1.4024 3.3779,-3.5081 4.0155,-3.6115 0.6068,-0.099 1.1625,0.3923 1.1625,1.0267 0,0.4478 -0.085,0.5598 -0.9531,1.2582 -1.9151,1.5404 -3.2458,3.2835 -4.1935,5.493 -0.2494,0.5815 -0.4844,1.0014 -0.615,1.0989 -0.3157,0.2357 -0.7482,0.2728 -1.0964,0.094 z m 26.9699,-1.1869 c -0.3556,-0.092 -0.5782,-0.3299 -0.891,-0.952 -0.6431,-1.279 -1.3279,-2.19 -2.58,-3.432 -0.8564,-0.8495 -1.4066,-1.3173 -1.9418,-1.651 -0.4108,-0.2561 -0.8775,-0.58 -1.0372,-0.7197 -0.7072,-0.6186 -0.2971,-1.7379 0.6414,-1.7509 0.4136,-0.01 1.0846,0.3564 2.2047,1.1899 1.8762,1.396 3.6233,3.4738 4.574,5.4396 0.3729,0.7712 0.3923,0.8829 0.2233,1.2875 -0.1789,0.428 -0.7416,0.7056 -1.1934,0.5886 z m -29.2738,-5.6783 c -0.5815,-0.073 -0.983,-0.861 -0.7196,-1.4133 0.4005,-0.8399 2.6517,-3.2269 4.1242,-4.373 0.7946,-0.6185 2.1802,-1.5388 2.8357,-1.8835 0.6841,-0.3598 1.3347,-0.2453 1.6079,0.283 0.3267,0.6317 0.097,1.1362 -0.7398,1.622 -2.1903,1.2723 -4.3428,3.1302 -5.6935,4.9144 -0.5562,0.7348 -0.8632,0.9193 -1.4149,0.8504 z m 10.7867,-1.8829 c -0.3402,-0.2074 -0.5577,-0.681 -0.4867,-1.0595 0.1058,-0.5641 0.596,-0.8462 2.2063,-1.2699 2.2599,-0.5946 5.0991,-0.6363 7.3651,-0.1082 0.6174,0.1439 0.8132,0.2295 1.0372,0.4534 0.2271,0.2272 0.2759,0.3413 0.2757,0.6444 -9e-4,0.5172 -0.2446,0.8838 -0.6745,1.0126 -0.2957,0.089 -0.457,0.077 -1.1436,-0.081 -2.3246,-0.534 -4.7698,-0.4198 -7.1227,0.3327 -0.9129,0.2919 -1.0863,0.3009 -1.4568,0.075 z m 18.6812,-1.1409 c -1.4064,-1.1868 -1.7769,-1.4749 -2.6275,-2.0432 -1.0512,-0.7023 -2.7763,-1.5736 -3.9201,-1.9799 -0.8708,-0.3093 -1.2096,-0.5835 -1.2835,-1.0385 -0.1049,-0.6466 0.3523,-1.1754 1.0164,-1.1754 0.7295,0 3.5432,1.2712 5.2034,2.3508 1.4036,0.9127 3.0652,2.2942 3.3398,2.7767 0.1847,0.3245 0.1873,0.5782 0.01,0.9523 -0.1666,0.3511 -0.4973,0.5383 -0.9509,0.5383 -0.2745,0 -0.418,-0.07 -0.7874,-0.3811 z m -19.5935,-4.3113 c -0.8155,-0.3551 -0.8452,-1.4993 -0.049,-1.8773 0.4089,-0.194 2.3549,-0.6734 3.4053,-0.8389 1.9393,-0.3055 5.8553,-0.2398 6.4456,0.1081 0.5768,0.34 0.6535,1.2055 0.1471,1.658 l -0.2707,0.2419 -1.2797,-0.073 c -2.917,-0.1653 -5.0169,0.042 -7.3754,0.7287 -0.6899,0.2008 -0.6828,0.2005 -1.0235,0.052 z"
         style="fill:#d3d5e5;stroke-width:0.0846667" />
      <path
         id="path1541"
         d="m 165.8761,240.8428 c -0.9392,-0.098 -1.2648,-0.2016 -1.4765,-0.4707 -0.3748,-0.4766 -0.2604,-1.1161 0.2539,-1.42 0.2402,-0.1418 0.3427,-0.1452 1.4494,-0.047 2.1631,0.1916 4.4208,0.01 6.4599,-0.5269 0.5588,-0.1465 1.1971,-0.283 1.4184,-0.3035 0.3695,-0.034 0.4267,-0.013 0.6985,0.2589 0.3811,0.3811 0.4103,0.8416 0.078,1.2361 -0.5243,0.623 -3.6544,1.2563 -6.5133,1.3177 -0.8848,0.019 -1.9507,0 -2.3687,-0.044 z m -5.4254,-1.2558 c -2.5186,-0.9592 -5.0617,-2.5258 -6.743,-4.1539 -0.6364,-0.6161 -0.6606,-0.6539 -0.6606,-1.03 0,-0.4735 0.2138,-0.7823 0.6389,-0.9225 0.4295,-0.1418 0.6869,-0.022 1.4979,0.6954 1.7852,1.5796 3.7951,2.7877 6.0357,3.628 1.038,0.3892 1.1781,0.4847 1.3135,0.8951 0.2014,0.6102 -0.2676,1.2197 -0.9347,1.2145 -0.1629,0 -0.6794,-0.1483 -1.1477,-0.3266 z m 16.5,-1.1487 c -0.5721,-0.2488 -0.7658,-1.0171 -0.3643,-1.4453 0.1153,-0.123 0.5571,-0.4283 0.9818,-0.6783 1.7665,-1.0403 3.8148,-2.8254 5.1657,-4.5019 0.7509,-0.9318 0.8923,-1.0403 1.3559,-1.0403 0.2842,0 0.4079,0.052 0.6161,0.2605 0.217,0.217 0.2604,0.3266 0.2596,0.6562 -8e-4,0.3362 -0.058,0.4714 -0.3795,0.9001 -1.6843,2.2435 -4.2919,4.502 -6.5992,5.7157 -0.5457,0.2871 -0.6514,0.3007 -1.0361,0.1333 z m -8.2184,-3.1558 c -0.1044,-0.019 -0.3044,-0.1489 -0.4445,-0.289 -0.2081,-0.2081 -0.2547,-0.3248 -0.2547,-0.6376 0,-0.3193 0.046,-0.4288 0.2752,-0.6579 0.2514,-0.2511 0.347,-0.2839 1.1073,-0.3795 2.4593,-0.3091 4.6142,-1.1787 6.5509,-2.6434 0.4758,-0.3598 0.891,-0.6074 1.0664,-0.6359 0.5424,-0.088 1.0755,0.3805 1.0755,0.945 0,0.3562 -0.2076,0.6584 -0.7336,1.068 -1.6056,1.2503 -3.3884,2.1561 -5.3746,2.7305 -1.0376,0.3 -2.8437,0.5763 -3.2679,0.4998 z m -4.337,-0.3232 c -2.615,-0.6075 -4.8466,-1.7585 -6.8185,-3.517 -0.8008,-0.7141 -0.9737,-0.9618 -0.9737,-1.3945 0,-0.4304 0.2272,-0.7494 0.6278,-0.8816 0.4208,-0.1389 0.6851,-0.035 1.2652,0.4989 1.9608,1.8035 4.0398,2.9121 6.4467,3.4373 0.3725,0.081 0.7814,0.2006 0.9087,0.2651 0.2776,0.1406 0.4883,0.5175 0.4883,0.8734 0,0.3288 -0.4488,0.8202 -0.8044,0.8809 -0.1397,0.024 -0.6527,-0.049 -1.1401,-0.1625 z m -13.3378,-2.5086 c -0.3835,-0.3016 -1.3708,-1.8804 -2.0819,-3.3292 -0.7363,-1.4999 -1.3042,-3.1099 -1.6451,-4.6634 -0.2083,-0.9489 -0.2153,-1.0446 -0.097,-1.3269 0.2655,-0.6354 1.04,-0.8124 1.5078,-0.3446 0.2045,0.2046 0.286,0.4179 0.4646,1.2171 0.4904,2.1937 1.5168,4.6152 2.7325,6.4466 0.5032,0.7582 0.601,0.9627 0.601,1.2573 0,0.7528 -0.8972,1.2028 -1.4816,0.7431 z m 34.4498,-2.9465 c -0.2981,-0.1204 -0.5409,-0.5029 -0.5409,-0.8519 0,-0.1756 0.1127,-0.5706 0.2505,-0.8776 1.0021,-2.2336 1.5501,-4.5628 1.6717,-7.1062 0.052,-1.0894 0.057,-1.1088 0.319,-1.3951 0.2138,-0.2333 0.3331,-0.2922 0.6065,-0.2993 0.4334,-0.011 0.7692,0.2063 0.9375,0.6078 0.1997,0.4766 0.043,2.6434 -0.3246,4.5019 -0.2945,1.487 -1.0373,3.7271 -1.6043,4.8387 -0.2754,0.5396 -0.8216,0.7812 -1.3154,0.5817 z m -6.2559,-0.2479 c -0.3527,-0.1541 -0.5926,-0.5121 -0.5926,-0.8843 0,-0.2894 0.091,-0.4953 0.4941,-1.1151 0.9236,-1.421 1.5578,-2.9696 1.9321,-4.7183 0.1523,-0.7114 0.1869,-1.1577 0.1921,-2.4764 0,-0.9888 -0.038,-1.8744 -0.1084,-2.2982 -0.097,-0.5802 -0.097,-0.7266 0,-0.9237 0.2998,-0.6119 1.0683,-0.7743 1.5213,-0.3213 0.3219,0.3219 0.4791,1.1029 0.5511,2.7388 0.1367,3.103 -0.6564,6.1582 -2.2746,8.763 -0.2604,0.4191 -0.5849,0.8682 -0.7212,0.998 -0.2643,0.2518 -0.7148,0.3594 -0.9939,0.2375 z m -24.5461,-1.3209 c -0.3001,-0.2781 -1.1498,-2.0491 -1.5231,-3.1742 -0.5726,-1.7264 -0.8807,-3.9774 -0.7649,-5.588 0.061,-0.8531 0.1731,-1.1777 0.4788,-1.3919 0.2427,-0.1699 0.8213,-0.1699 1.064,0 0.3771,0.2642 0.4495,0.5495 0.3903,1.5389 -0.088,1.4737 0.174,3.3562 0.6819,4.8977 0.1215,0.3686 0.4484,1.1315 0.7265,1.6952 0.6054,1.227 0.6529,1.5925 0.2581,1.9872 -0.2066,0.2067 -0.3164,0.2475 -0.6649,0.2475 -0.3284,0 -0.4664,-0.045 -0.6467,-0.2124 z m 12.3118,-0.7774 c -0.9729,-0.1626 -1.8603,-0.6985 -2.3223,-1.4024 -0.4928,-0.7507 -0.66,-1.3887 -0.7059,-2.6926 -0.052,-1.4691 -0.079,-1.4345 1.1232,-1.4345 1.1512,0 1.1422,-0.01 1.1269,1.1681 -0.01,0.5218 0.032,1.0391 0.092,1.2195 0.1157,0.3494 0.5763,0.799 0.9024,0.8808 0.4038,0.1013 1.1777,-0.01 1.4541,-0.2041 0.6469,-0.4606 0.8488,-1.6794 0.4187,-2.5274 -0.2991,-0.59 -0.7378,-0.9221 -2.0891,-1.5818 -1.2599,-0.615 -1.843,-1.0178 -2.254,-1.5566 -1.0251,-1.3441 -0.8962,-4.0614 0.2531,-5.3335 0.3711,-0.4108 1.1165,-0.8166 1.7592,-0.9577 0.613,-0.1346 2.0984,-0.065 2.6124,0.1224 0.5945,0.2168 1.2288,0.6971 1.5648,1.185 0.4411,0.6405 0.6491,1.3644 0.6997,2.436 l 0.043,0.9043 -0.2858,0.052 c -0.1572,0.029 -0.6464,0.022 -1.0872,-0.015 l -0.8015,-0.068 -0.095,-0.7727 c -0.1162,-0.9413 -0.3108,-1.2986 -0.8497,-1.5594 -0.4812,-0.233 -1.2666,-0.2054 -1.6178,0.057 -0.475,0.3546 -0.5735,0.5817 -0.6053,1.3963 -0.027,0.7001 -0.013,0.7859 0.1871,1.0878 0.3095,0.4676 0.6666,0.7116 1.7539,1.1984 0.5266,0.2357 1.1602,0.5583 1.408,0.7168 1.2691,0.8118 1.8877,2.0164 1.8877,3.6756 0,2.1336 -1.0487,3.5883 -2.8617,3.9696 -0.4335,0.091 -1.2742,0.1089 -1.7103,0.036 z m -19.7008,-6.4566 c -0.1483,-0.091 -0.3103,-0.2402 -0.3598,-0.3328 -0.2437,-0.4554 -0.035,-3.1968 0.3875,-5.0901 0.4237,-1.8985 1.3513,-4.3457 1.8161,-4.791 0.3642,-0.349 0.8909,-0.3485 1.2557,10e-4 0.4326,0.4145 0.4239,0.6717 -0.061,1.8057 -0.9703,2.2668 -1.4336,4.2881 -1.5864,6.9213 -0.032,0.5588 -0.095,1.0847 -0.139,1.1687 -0.1109,0.2118 -0.5766,0.4817 -0.8311,0.4817 -0.1164,0 -0.3331,-0.074 -0.4815,-0.1645 z m 39.9409,-3.4231 c -0.4137,-0.1375 -0.5699,-0.4135 -0.7723,-1.3648 -0.4214,-1.98 -1.4184,-4.4238 -2.4985,-6.1235 -0.994,-1.5643 -0.9986,-1.5769 -0.7542,-2.0496 0.2405,-0.4651 0.9712,-0.6574 1.3882,-0.3654 0.6228,0.4362 2.4196,3.7873 3.0802,5.7445 0.4213,1.2484 0.8198,2.8605 0.8211,3.3218 0,0.5673 -0.6928,1.0269 -1.2645,0.837 z m -33.5535,-1.3864 c -0.3098,-0.1921 -0.5169,-0.6416 -0.4522,-0.9815 0.081,-0.4262 0.8206,-2.0668 1.2754,-2.8299 0.5584,-0.9371 1.3473,-1.9771 2.1334,-2.8128 0.728,-0.7738 2.1326,-1.9371 2.5456,-2.1081 0.6234,-0.2583 1.2919,0.1814 1.2919,0.8496 0,0.4737 -0.086,0.5941 -0.8271,1.1592 -0.9008,0.6868 -2.3254,2.1878 -2.9634,3.1224 -0.5338,0.782 -1.1816,2.0123 -1.5447,2.9338 -0.2952,0.749 -0.889,1.0207 -1.4589,0.6673 z m 26.9024,-1.1975 c -0.2627,-0.1136 -0.4643,-0.3771 -0.8833,-1.1545 -1.1296,-2.0955 -3.0997,-4.16 -4.9892,-5.2282 -0.7903,-0.4468 -0.993,-1.075 -0.5205,-1.6132 0.5108,-0.5817 1.0471,-0.4448 2.583,0.6594 1.9769,1.4213 3.7324,3.4569 4.781,5.544 0.2889,0.575 0.3491,0.7717 0.3102,1.0118 -0.092,0.568 -0.79,0.9932 -1.2812,0.7807 z m -29.2271,-5.6558 c -0.2935,-0.057 -0.7026,-0.5792 -0.7021,-0.8962 6e-4,-0.3485 0.215,-0.6931 1.0842,-1.742 1.2138,-1.4648 2.9272,-2.9864 4.588,-4.0744 1.6806,-1.101 2.1705,-1.2346 2.6755,-0.7296 0.2319,0.2319 0.2878,0.354 0.2878,0.6285 0,0.4695 -0.2533,0.7424 -1.1912,1.2838 -1.9092,1.1018 -3.8629,2.8274 -5.4077,4.7762 -0.4039,0.5096 -0.8519,0.8414 -1.0818,0.8014 -0.036,-0.01 -0.1502,-0.028 -0.2527,-0.048 z m 10.842,-1.8819 c -0.3091,-0.1884 -0.4935,-0.646 -0.4113,-1.0202 0.083,-0.3789 0.4716,-0.646 1.347,-0.9264 2.2955,-0.7354 5.1103,-0.915 7.4542,-0.4758 1.5796,0.2959 1.9095,0.5048 1.9095,1.2084 0,0.3197 -0.046,0.4241 -0.2984,0.6765 -0.2774,0.2774 -0.3266,0.2952 -0.6985,0.2528 -0.22,-0.025 -0.6668,-0.1043 -0.9927,-0.176 -2.1083,-0.4638 -4.449,-0.3465 -6.7089,0.3363 -1.1022,0.3331 -1.2411,0.3438 -1.6009,0.1244 z m 18.412,-1.3821 c -1.8523,-1.6146 -3.7953,-2.8239 -5.7419,-3.5734 -1.3226,-0.5093 -1.4575,-0.5799 -1.6208,-0.8477 -0.244,-0.4 -0.2035,-0.759 0.1262,-1.1187 0.3983,-0.4346 0.741,-0.4185 2.0449,0.096 2.0657,0.8151 3.9951,1.9476 5.6907,3.3402 1.3769,1.1309 1.506,1.2851 1.506,1.7978 0,0.3737 -0.034,0.4557 -0.2765,0.6726 -0.2171,0.194 -0.3569,0.2471 -0.6505,0.2471 -0.343,0 -0.4322,-0.051 -1.0781,-0.6139 z m -19.4313,-4.1193 c -0.3409,-0.2128 -0.4499,-0.4171 -0.4499,-0.8427 0,-0.5729 0.2647,-0.7912 1.3312,-1.098 1.1285,-0.3246 2.3937,-0.5666 3.6512,-0.6982 1.055,-0.1105 4.2757,-0.059 4.9212,0.079 0.7136,0.1522 1.0488,0.8193 0.7258,1.4441 -0.1536,0.2969 -0.6505,0.5442 -0.9602,0.4779 -0.6048,-0.1295 -2.6886,-0.1995 -3.7761,-0.1269 -1.4145,0.095 -2.3915,0.254 -3.6918,0.6027 -1.3082,0.3507 -1.4312,0.3622 -1.7514,0.1623 z"
         style="fill:#a6abcc;stroke-width:0.0846667" />
      <path
         id="path1539"
         d="m 166.0858,240.8008 c -0.07,-0.015 -0.3919,-0.053 -0.7156,-0.083 -0.516,-0.049 -0.6229,-0.09 -0.8678,-0.3353 -0.3114,-0.3115 -0.3632,-0.6504 -0.1595,-1.0443 0.2297,-0.4443 0.3927,-0.473 2.0572,-0.3625 2.3692,0.1574 4.4795,-0.054 6.6634,-0.6688 0.5832,-0.1641 1.0119,-0.2407 1.1619,-0.2078 0.3534,0.078 0.6657,0.4936 0.6657,0.8865 0,0.5264 -0.28,0.7777 -1.1595,1.0402 -0.9553,0.2852 -2.6328,0.619 -3.6843,0.7332 -0.7374,0.08 -3.6428,0.111 -3.9615,0.042 z m -4.7414,-0.9437 c -2.5495,-0.9239 -4.2686,-1.8216 -6.0536,-3.1611 -1.1084,-0.8317 -1.9249,-1.5717 -2.1047,-1.9075 -0.2129,-0.3978 -0.1318,-0.8031 0.2198,-1.099 0.2233,-0.1879 0.3283,-0.219 0.6247,-0.1856 0.2947,0.033 0.4756,0.1453 1.0469,0.6488 1.8709,1.6486 4.007,2.9293 6.2246,3.732 0.8664,0.3136 1.2277,0.6142 1.2277,1.0213 0,0.6412 -0.6349,1.1506 -1.1854,0.9511 z m 15.3586,-1.6678 c -0.2017,-0.2017 -0.2879,-0.3653 -0.2879,-0.5463 0,-0.4925 0.1661,-0.6771 1.1337,-1.2601 1.9655,-1.1842 3.8702,-2.845 5.2324,-4.5623 0.5624,-0.709 0.7634,-0.9026 1.0155,-0.9781 0.4053,-0.1214 0.789,0.026 1.0101,0.3889 0.3192,0.5235 0.2055,0.7896 -0.9153,2.1421 -1.2566,1.5163 -2.9947,3.053 -4.6826,4.1397 -1.6743,1.078 -2.0127,1.1693 -2.5059,0.6761 z m -8.182,-3.0566 c -0.2408,-0.1363 -0.4879,-0.5242 -0.4879,-0.766 0,-0.2295 0.2413,-0.6669 0.4344,-0.7875 0.099,-0.062 0.5902,-0.1663 1.091,-0.2319 2.4147,-0.3162 4.6437,-1.2313 6.4792,-2.6598 0.6638,-0.5167 0.8134,-0.5923 1.1714,-0.5923 0.5584,0 0.9547,0.5764 0.7989,1.162 -0.1286,0.4834 -1.8697,1.7365 -3.5143,2.5293 -2.0305,0.9789 -5.3141,1.719 -5.9727,1.3462 z m -4.2556,-0.2523 c -2.3826,-0.5581 -4.7151,-1.7735 -6.6576,-3.4691 -0.7027,-0.6133 -1.0047,-1.0281 -1.0047,-1.3799 0,-0.2763 0.3637,-0.7293 0.652,-0.8119 0.4185,-0.1201 0.6452,-0.015 1.3777,0.6403 1.9173,1.7144 4.2992,2.9244 6.6433,3.3747 0.6733,0.1294 0.9798,0.424 0.9771,0.9393 0,0.5468 -0.3765,0.9238 -0.9027,0.9108 -0.1311,0 -0.6194,-0.095 -1.0851,-0.2042 z m -13.2354,-2.542 c -0.3266,-0.2749 -1.1532,-1.5542 -1.7877,-2.767 -0.8142,-1.5561 -1.4336,-3.2397 -1.8321,-4.9796 -0.2784,-1.2157 -0.2701,-1.3913 0.083,-1.7441 0.3203,-0.3203 0.6551,-0.3738 1.0528,-0.1681 0.3117,0.1612 0.3979,0.3557 0.6411,1.4466 0.5083,2.2794 1.3259,4.1868 2.7402,6.3923 0.5485,0.8554 0.6189,1.0097 0.5788,1.27 -0.1053,0.6845 -0.9444,0.9971 -1.4759,0.5499 z m 34.2845,-3.0527 c -0.392,-0.3298 -0.4151,-0.6605 -0.097,-1.3859 1.0789,-2.4581 1.5533,-4.4134 1.6874,-6.9547 0.075,-1.417 0.1471,-1.6536 0.5641,-1.8436 0.3985,-0.1815 0.7085,-0.1205 1.0322,0.2031 l 0.3008,0.3009 -0.053,1.2866 c -0.1055,2.5492 -0.6192,4.8215 -1.6404,7.2557 -0.4405,1.05 -0.7117,1.3547 -1.2058,1.3547 -0.2314,0 -0.4082,-0.065 -0.5884,-0.2168 z m -6.1807,-0.1553 c -0.2678,-0.1485 -0.4263,-0.4492 -0.4286,-0.8132 0,-0.2168 0.1116,-0.4659 0.4207,-0.9275 1.6614,-2.4813 2.4915,-5.7133 2.2019,-8.5729 -0.2169,-2.1417 -0.229,-1.8889 0.1062,-2.2241 0.2149,-0.2149 0.3726,-0.2982 0.5648,-0.2982 0.4089,0 0.7301,0.2092 0.8727,0.5683 0.3973,0.9999 0.4132,4.3494 0.03,6.1686 -0.3967,1.8803 -1.1935,3.8037 -2.2064,5.326 -0.576,0.8656 -1.0078,1.0795 -1.5608,0.773 z m -24.2664,-1.1381 c -0.4714,-0.2876 -1.4775,-2.4854 -1.9055,-4.1625 -0.3141,-1.2308 -0.4288,-2.0287 -0.4811,-3.3469 -0.066,-1.6526 0,-2.1716 0.3122,-2.5226 0.2048,-0.2292 0.2984,-0.2688 0.6351,-0.2688 0.3355,0 0.4305,0.04 0.6315,0.2648 l 0.2366,0.2649 0.044,1.8518 c 0.038,1.587 0.075,1.979 0.2572,2.7408 0.2869,1.1972 0.6632,2.2293 1.2109,3.3215 0.2508,0.5 0.4559,0.9878 0.4559,1.084 0,0.2843 -0.2386,0.6623 -0.5052,0.8001 -0.3276,0.1694 -0.5822,0.1617 -0.8918,-0.027 z m 11.7687,-0.9778 c -0.5802,-0.1411 -1.2638,-0.5281 -1.6102,-0.9116 -0.703,-0.7781 -0.989,-1.7716 -0.9535,-3.3134 l 0.024,-1.034 h 1.016 1.016 l 0.046,1.1007 c 0.047,1.1322 0.1309,1.4398 0.4778,1.7538 0.2545,0.2303 0.7523,0.4052 1.1537,0.4052 1.6481,0 2.1898,-2.4568 0.7912,-3.5885 -0.1935,-0.1566 -0.9298,-0.5762 -1.6361,-0.9325 -2.242,-1.1308 -2.8171,-1.9113 -2.8207,-3.8283 0,-2.3164 1.0218,-3.6629 2.9981,-3.9334 1.6143,-0.2209 3.1297,0.3162 3.7786,1.3394 0.3888,0.6131 0.5852,1.2365 0.689,2.187 0.1261,1.1549 0.1429,1.1363 -1.0258,1.1363 -0.5903,0 -0.9393,-0.035 -1.0057,-0.1016 -0.056,-0.056 -0.1018,-0.3131 -0.102,-0.5715 -9e-4,-0.6799 -0.1451,-1.1011 -0.4988,-1.4547 -0.766,-0.7661 -2.0546,-0.5891 -2.5276,0.3472 -0.2759,0.5462 -0.2681,1.4216 0.017,1.9081 0.2879,0.4913 0.5739,0.6859 2.0822,1.4165 1.1015,0.5336 1.3998,0.72 1.8295,1.143 0.8239,0.8113 1.1445,1.6574 1.1501,3.0362 0.01,2.0931 -0.8915,3.4413 -2.6023,3.8983 -0.5179,0.1384 -1.7127,0.1372 -2.286,0 z m -19.4508,-6.4806 -0.2765,-0.2479 0.011,-1.0856 c 0.027,-2.6834 0.7282,-5.6427 1.9377,-8.1803 0.3288,-0.69 0.8188,-0.9082 1.3834,-0.6163 0.5118,0.2647 0.5539,0.7841 0.1376,1.6976 -0.9387,2.0597 -1.5266,4.5151 -1.6224,6.7754 -0.031,0.7339 -0.094,1.2721 -0.1651,1.4131 -0.2767,0.5485 -0.938,0.6633 -1.4056,0.244 z m 40.0248,-3.3034 c -0.3356,-0.1374 -0.4767,-0.4178 -0.6901,-1.371 -0.5485,-2.451 -1.561,-4.7869 -2.9627,-6.835 -0.2739,-0.4003 -0.3689,-0.6207 -0.3689,-0.8564 0,-0.3957 0.2423,-0.7187 0.6369,-0.8489 0.2483,-0.082 0.3461,-0.073 0.6125,0.057 0.5834,0.2851 2.0141,2.6711 2.8517,4.7559 0.6223,1.5487 1.1504,3.5175 1.1464,4.2734 0,0.6679 -0.6107,1.0763 -1.2258,0.8246 z m -33.5969,-1.4791 c -0.4913,-0.4553 -0.4093,-0.9076 0.4926,-2.7166 0.7438,-1.4921 1.478,-2.5486 2.5669,-3.6941 0.7329,-0.771 2.0142,-1.8686 2.4437,-2.0934 0.724,-0.379 1.5923,0.3535 1.3074,1.1028 -0.047,0.1233 -0.44,0.5073 -0.8735,0.8533 -1.9243,1.5358 -3.4884,3.6073 -4.2994,5.6941 -0.3209,0.8259 -0.5522,1.0583 -1.0532,1.0583 -0.2674,0 -0.4224,-0.054 -0.5845,-0.2044 z m 26.8558,-1.1929 c -0.1384,-0.075 -0.3581,-0.3843 -0.5843,-0.8221 -1.0944,-2.1183 -2.6274,-3.8076 -4.7179,-5.1992 -0.5235,-0.3485 -0.9902,-0.7054 -1.0371,-0.793 -0.1325,-0.2474 -0.097,-0.7861 0.065,-0.986 0.312,-0.3851 0.7645,-0.4698 1.23,-0.2302 1.4443,0.7434 3.5949,2.644 4.7331,4.1831 0.9126,1.234 1.6762,2.6175 1.6762,3.037 0,0.7403 -0.7139,1.1642 -1.3648,0.8104 z m -29.2422,-5.6436 c -0.3054,-0.1679 -0.4619,-0.4401 -0.4638,-0.8067 0,-0.3041 0.073,-0.4548 0.5236,-1.0583 0.7361,-0.9858 2.8165,-3.04 3.8898,-3.8409 1.0387,-0.7751 2.5324,-1.6966 2.9658,-1.8296 0.4107,-0.126 0.8505,0.085 1.0491,0.5038 0.1299,0.2737 0.1329,0.3447 0.028,0.644 -0.1057,0.3009 -0.22,0.3972 -1.0792,0.9097 -2.0516,1.2235 -3.8685,2.8149 -5.3698,4.7033 -0.2661,0.3347 -0.5688,0.6681 -0.6726,0.7408 -0.218,0.1527 -0.6257,0.1686 -0.8706,0.034 z m 11.2448,-1.6939 c -0.6051,-0.1628 -0.82,-0.9195 -0.4021,-1.4162 0.45,-0.5348 3.0059,-1.1542 5.1593,-1.2503 1.8679,-0.083 4.4571,0.2868 4.9589,0.709 0.6029,0.5073 0.2553,1.5483 -0.517,1.5483 -0.1705,0 -0.6681,-0.078 -1.1059,-0.1743 -1.0416,-0.2282 -3.2143,-0.3117 -4.3642,-0.1677 -0.7615,0.095 -2.1147,0.4053 -3.0782,0.7052 -0.2567,0.08 -0.469,0.095 -0.6508,0.046 z m 18.9218,-0.898 c -0.079,-0.034 -0.4031,-0.2925 -0.7197,-0.5747 -1.8334,-1.6347 -4.2557,-3.0941 -6.3329,-3.8155 -0.8632,-0.2997 -1.1437,-0.5609 -1.1412,-1.0623 0,-0.5343 0.3697,-0.9167 0.8796,-0.9167 0.1184,0 0.5876,0.1383 1.0427,0.3073 2.4709,0.9176 5.1318,2.5493 6.8173,4.1804 0.6154,0.5955 0.6566,0.6578 0.6566,0.9935 0,0.2717 -0.056,0.4205 -0.2329,0.6164 -0.2401,0.2665 -0.6877,0.3918 -0.9695,0.2716 z m -20.3228,-4.8382 c -0.2347,-0.2097 -0.2765,-0.3047 -0.2765,-0.6282 0,-0.7099 0.5074,-0.9789 2.7138,-1.4391 1.649,-0.3438 2.5212,-0.4292 4.3559,-0.4264 2.1341,0 2.9897,0.1132 3.3162,0.426 0.2981,0.2856 0.3667,0.6103 0.2089,0.988 -0.2194,0.525 -0.4788,0.5943 -1.7762,0.4742 -2.214,-0.205 -4.7553,0.017 -6.8527,0.5992 -1.1479,0.3186 -1.3391,0.3193 -1.6894,0.01 z"
         style="fill:#878dba;stroke-width:0.0846667" />
      <path
         id="path1537"
         d="m 165.7602,240.7557 c -0.9083,-0.093 -1.2246,-0.2265 -1.4162,-0.5969 -0.1891,-0.3659 -0.098,-0.7682 0.2392,-1.0516 0.2506,-0.211 0.3085,-0.2232 0.8226,-0.1749 2.8194,0.2653 5.257,0.078 7.6392,-0.5881 0.405,-0.1131 0.8746,-0.2057 1.0437,-0.2057 0.6666,0 1.0533,0.8436 0.6321,1.379 -0.2654,0.3375 -1.9684,0.8268 -3.8937,1.1187 -1.0762,0.1633 -3.9747,0.2316 -5.0669,0.1195 z m -5.324,-1.2588 c -2.4489,-0.9326 -5.0452,-2.5335 -6.7212,-4.1443 -0.544,-0.5228 -0.5832,-0.5851 -0.5832,-0.9249 0,-0.4764 0.1171,-0.6787 0.4812,-0.8308 0.4328,-0.1808 0.7147,-0.082 1.3179,0.4628 1.8434,1.6644 4.0967,3.0282 6.401,3.8741 0.9751,0.358 1.1517,0.5227 1.1517,1.0745 0,0.2685 -0.053,0.3803 -0.2746,0.5782 -0.3733,0.3336 -0.7054,0.3168 -1.7728,-0.09 z m 16.4668,-1.1481 c -0.536,-0.3005 -0.6171,-1.0389 -0.1551,-1.4117 0.1334,-0.1076 0.6502,-0.4432 1.1485,-0.7459 1.764,-1.0715 3.5248,-2.6329 4.929,-4.3707 0.3809,-0.4714 0.7548,-0.8809 0.831,-0.9102 0.076,-0.029 0.2807,-0.053 0.4545,-0.053 0.4596,0 0.7716,0.3455 0.7686,0.8513 0,0.3133 -0.067,0.4614 -0.3856,0.8843 -1.5236,2.0193 -3.6505,3.919 -5.9208,5.2883 -0.9363,0.5648 -1.3102,0.6695 -1.6701,0.4677 z m -8.1926,-3.1485 c -0.07,-0.025 -0.2317,-0.1439 -0.3598,-0.2632 -0.1857,-0.173 -0.2328,-0.2922 -0.2328,-0.5886 0,-0.544 0.3116,-0.8322 0.9804,-0.9068 2.6687,-0.2977 4.9223,-1.1828 6.9598,-2.7335 0.3857,-0.2935 0.814,-0.5563 0.952,-0.5838 0.7096,-0.142 1.26,0.6592 0.8994,1.3091 -0.1352,0.2436 -1.4515,1.2397 -2.27,1.7177 -1.8481,1.0793 -3.8844,1.7565 -6.0801,2.0219 -0.3946,0.048 -0.7184,0.084 -0.7196,0.08 0,0 -0.059,-0.028 -0.1293,-0.053 z m -4.1486,-0.2741 c -1.0173,-0.2153 -2.4276,-0.7033 -3.4237,-1.1846 -1.4258,-0.689 -3.1537,-1.9143 -4.0485,-2.8709 -0.3434,-0.3672 -0.4018,-0.4798 -0.4018,-0.7749 0,-0.4361 0.1892,-0.7281 0.5487,-0.8468 0.4314,-0.1423 0.6437,-0.041 1.4538,0.6911 1.7681,1.5988 3.9592,2.7364 6.2525,3.2463 0.8356,0.1858 1.049,0.2858 1.1893,0.5572 0.2524,0.4881 0.1003,0.9689 -0.3859,1.2204 -0.2949,0.1525 -0.2842,0.1528 -1.1844,-0.038 z m -13.4547,-2.5155 c -0.3283,-0.23 -1.3318,-1.8439 -2.0451,-3.2892 -0.731,-1.4811 -1.3804,-3.3244 -1.6935,-4.8071 -0.1818,-0.8613 -0.1849,-0.9286 -0.054,-1.2026 0.176,-0.3691 0.5768,-0.5851 0.9543,-0.5142 0.3008,0.056 0.7145,0.4681 0.7145,0.7109 0,0.079 0.131,0.6633 0.2912,1.2991 0.5092,2.022 1.3929,4.0232 2.5842,5.8522 0.4876,0.7486 0.5959,0.9768 0.5959,1.2553 0,0.6751 -0.7924,1.0842 -1.3473,0.6956 z m 34.3061,-3.0752 c -0.5161,-0.3147 -0.4876,-0.6796 0.1801,-2.305 0.8052,-1.96 1.2546,-4.0295 1.373,-6.3213 0.053,-1.0202 0.078,-1.1543 0.2592,-1.3696 0.2562,-0.3044 0.6006,-0.3813 0.9862,-0.2202 0.5091,0.2127 0.5973,0.503 0.5296,1.7437 -0.1482,2.7157 -0.7979,5.4427 -1.83,7.6803 -0.4325,0.9376 -0.8754,1.1718 -1.4981,0.7921 z m -6.1618,-0.1631 c -0.2822,-0.1221 -0.4778,-0.4012 -0.5205,-0.7428 -0.036,-0.2847 0.018,-0.4116 0.4361,-1.0438 1.7669,-2.6677 2.534,-5.9924 2.1235,-9.2031 -0.1312,-1.026 -0.1318,-1.139 -0.01,-1.3791 0.1642,-0.3177 0.6175,-0.5532 0.9189,-0.4776 0.1191,0.03 0.3198,0.1431 0.4459,0.2516 0.2969,0.2554 0.4348,0.9932 0.5088,2.7226 0.1077,2.5151 -0.3676,4.8985 -1.4283,7.1626 -0.4347,0.9279 -1.2282,2.2353 -1.5258,2.5139 -0.2289,0.2143 -0.689,0.309 -0.9509,0.1957 z m -24.5326,-1.3421 c -0.3025,-0.3164 -1.0908,-1.9831 -1.4515,-3.0691 -0.5703,-1.717 -0.8762,-3.8822 -0.7761,-5.4929 0.076,-1.2265 0.2643,-1.5345 0.9369,-1.5345 0.7209,0 0.9242,0.3635 0.845,1.5107 -0.1478,2.1419 0.4279,4.7986 1.4893,6.8721 0.5383,1.0517 0.5715,1.346 0.1942,1.7234 -0.3231,0.3231 -0.9241,0.3184 -1.2378,-0.01 z m 11.9985,-0.8166 c -1.3745,-0.3339 -2.2243,-1.2526 -2.541,-2.7467 -0.1201,-0.5665 -0.1672,-2.1696 -0.071,-2.4199 0.042,-0.1107 0.2098,-0.1339 0.9633,-0.1339 0.6269,0 0.9389,0.033 0.9984,0.1058 0.048,0.058 0.1,0.5849 0.1162,1.1705 0.027,0.9694 0.049,1.0926 0.2413,1.3771 0.2736,0.4038 0.7769,0.6486 1.3336,0.6486 1.0742,0 1.6242,-0.6232 1.6279,-1.8443 0,-1.2021 -0.4651,-1.7386 -2.3029,-2.6356 -0.6727,-0.3284 -1.431,-0.7707 -1.7098,-0.9973 -1.0704,-0.8702 -1.4709,-2.3267 -1.1092,-4.0338 0.2642,-1.2468 0.8046,-1.9807 1.809,-2.4566 0.5485,-0.2598 0.5939,-0.2668 1.7484,-0.2663 1.042,0 1.2442,0.024 1.6719,0.1965 0.9666,0.3894 1.6647,1.2502 1.9662,2.4243 0.1495,0.5821 0.175,1.8704 0.039,1.9546 -0.05,0.031 -0.5072,0.029 -1.016,0 l -0.9251,-0.06 v -0.2715 c 0,-0.5305 -0.1842,-1.281 -0.3931,-1.6013 -0.2984,-0.4578 -0.8343,-0.6838 -1.4821,-0.625 -0.9933,0.09 -1.4268,0.6324 -1.4268,1.7852 0,0.4098 0.047,0.7447 0.1242,0.8949 0.2312,0.4471 0.8645,0.9034 1.8852,1.3582 1.1779,0.5249 1.7286,0.8753 2.2482,1.4307 0.6919,0.7397 0.9926,1.6078 0.9905,2.8592 0,2.1688 -0.9729,3.5359 -2.7758,3.9151 -0.5711,0.1201 -1.4613,0.1096 -2.0101,-0.024 z m -19.3619,-6.3638 c -0.3565,-0.1935 -0.4044,-0.3712 -0.4026,-1.4923 0,-2.2921 0.5922,-5.0079 1.6052,-7.4064 0.2371,-0.5614 0.5281,-1.1119 0.6466,-1.2233 0.3006,-0.2824 0.8658,-0.2816 1.1674,0 0.3898,0.3662 0.3732,0.6548 -0.1016,1.7651 -0.9791,2.2893 -1.4081,4.19 -1.5903,7.0456 -0.06,0.943 -0.1501,1.1815 -0.5065,1.3438 -0.2835,0.1292 -0.5366,0.1186 -0.8182,-0.034 z m 39.8402,-3.4628 c -0.3526,-0.1534 -0.4175,-0.2916 -0.6672,-1.4206 -0.4621,-2.0891 -1.4977,-4.5261 -2.7417,-6.4518 -0.329,-0.5093 -0.5983,-1.0167 -0.5983,-1.1274 0,-0.7388 0.9331,-1.1568 1.4706,-0.6587 0.6083,0.5638 2.0401,3.1507 2.7319,4.936 0.4288,1.1067 1.0469,3.408 1.0469,3.8981 0,0.3935 -0.19,0.6757 -0.5587,0.8297 -0.3397,0.142 -0.345,0.1419 -0.6835,-0.01 z m -33.5431,-1.4452 c -0.4992,-0.42 -0.4324,-0.8713 0.376,-2.5419 1.1044,-2.2821 2.9496,-4.4671 4.8556,-5.7498 0.4878,-0.3283 0.7317,-0.3661 1.1074,-0.1718 0.3154,0.1631 0.4216,0.3657 0.4216,0.8044 0,0.4021 -0.035,0.4415 -1.2737,1.4384 -1.6657,1.3403 -3.2595,3.5655 -4.0198,5.6123 -0.2895,0.7792 -0.9423,1.05 -1.4671,0.6084 z m 26.9959,-1.1123 c -0.2555,-0.1017 -0.4481,-0.337 -0.7241,-0.8844 -1.0365,-2.0565 -2.7934,-3.9771 -4.8606,-5.3137 -0.4406,-0.2849 -0.8488,-0.6039 -0.9072,-0.709 -0.2788,-0.502 0.041,-1.191 0.6017,-1.2961 0.3268,-0.061 0.6961,0.1054 1.6351,0.7384 2.1838,1.472 3.9717,3.4996 5.151,5.8413 0.3492,0.6935 0.3525,1.0625 0.012,1.4026 -0.1992,0.1993 -0.6732,0.3146 -0.9083,0.2209 z m -29.3464,-5.6994 c -0.2767,-0.1118 -0.5409,-0.504 -0.5409,-0.8029 0,-0.3452 0.3025,-0.8004 1.3151,-1.9786 1.1988,-1.3948 2.7909,-2.7723 4.446,-3.8467 1.5025,-0.9753 2.0081,-1.1113 2.4581,-0.6613 0.4828,0.4827 0.2783,1.1705 -0.459,1.5442 -1.753,0.8884 -4.2359,3.0027 -5.7093,4.8617 -0.7306,0.9219 -1.0102,1.0855 -1.51,0.8836 z m 10.8985,-1.9118 c -0.3246,-0.2731 -0.4135,-0.681 -0.2271,-1.0415 0.1616,-0.3126 0.3704,-0.4286 1.2952,-0.7198 2.3492,-0.7396 5.1781,-0.8824 7.6379,-0.3855 1.3302,0.2687 1.5293,0.4112 1.5293,1.0945 0,0.2748 -0.054,0.4044 -0.2475,0.5982 -0.2975,0.2976 -0.4648,0.3063 -1.5072,0.079 -2.2712,-0.4957 -4.647,-0.38 -6.9792,0.3398 -0.9978,0.3079 -1.1728,0.312 -1.5014,0.036 z m 18.4296,-1.3308 c -1.017,-0.8937 -1.368,-1.1626 -2.4006,-1.8393 -1.0231,-0.6705 -2.7812,-1.5581 -3.7617,-1.8991 -0.8599,-0.299 -1.0107,-0.3848 -1.1503,-0.6547 -0.1915,-0.3704 -0.1488,-0.7128 0.1274,-1.0218 0.3504,-0.3922 0.7197,-0.3656 1.9968,0.1441 2.4048,0.9596 4.7564,2.4191 6.5067,4.038 0.5275,0.4878 0.5843,0.573 0.6244,0.9348 0.04,0.3595 0.019,0.4232 -0.214,0.6562 -0.2118,0.2119 -0.3268,0.258 -0.6426,0.258 -0.357,0 -0.4352,-0.044 -1.0861,-0.6162 z m -19.3894,-4.084 c -0.3003,-0.1679 -0.4043,-0.3739 -0.4043,-0.8014 0,-0.2533 0.055,-0.4027 0.2007,-0.5487 0.3817,-0.3817 2.6652,-0.9527 4.6157,-1.1542 1.0855,-0.1121 4.4945,-0.056 5.0473,0.083 0.6675,0.168 0.9441,0.8866 0.5392,1.4013 -0.2748,0.3495 -0.5052,0.4006 -1.3312,0.2958 -1.083,-0.1375 -3.2779,-0.1142 -4.542,0.048 -0.6054,0.078 -1.615,0.2767 -2.2437,0.4419 -1.4189,0.3729 -1.5941,0.3947 -1.8817,0.234 z"
         style="fill:#7c82b4;stroke-width:0.0846667" />
      <path
         id="path1535"
         d="m 166.3734,240.7621 c -1.4098,-0.1 -1.609,-0.1466 -1.8503,-0.4334 -0.1406,-0.1671 -0.2153,-0.3584 -0.2153,-0.5513 0,-0.7244 0.3981,-0.9214 1.5803,-0.782 1.0931,0.1289 3.9685,0.05 5.0237,-0.138 0.4424,-0.079 1.2425,-0.2595 1.778,-0.4015 1.4263,-0.3781 1.5329,-0.3827 1.8717,-0.08 0.2364,0.2112 0.2834,0.3124 0.2834,0.6093 0,0.5407 -0.2983,0.7589 -1.4853,1.0862 -1.2751,0.3516 -2.656,0.5803 -4.15,0.6874 -1.3195,0.095 -1.5447,0.095 -2.8362,0 z m -5.8756,-1.2671 c -1.8648,-0.7138 -4.0797,-1.9544 -5.5009,-3.0811 -0.8606,-0.6823 -1.6383,-1.3915 -1.7536,-1.5991 -0.3153,-0.5676 0.078,-1.2483 0.722,-1.2483 0.2996,0 0.4249,0.074 1.086,0.642 1.9889,1.7082 3.9212,2.873 6.1238,3.6912 1.0246,0.3806 1.27,0.5904 1.27,1.0855 0,0.4508 -0.2745,0.7602 -0.7198,0.8113 -0.2563,0.029 -0.5546,-0.044 -1.2275,-0.3015 z m 16.2495,-1.35 c -0.2623,-0.2622 -0.3332,-0.7042 -0.1638,-1.0207 0.046,-0.086 0.4791,-0.3919 0.9624,-0.6798 0.4834,-0.2879 1.2934,-0.8303 1.8002,-1.2053 1.0563,-0.7817 2.9113,-2.599 3.6164,-3.543 0.264,-0.3534 0.577,-0.6868 0.6956,-0.7408 0.6026,-0.2745 1.2237,0.098 1.2237,0.7336 0,0.2878 -0.089,0.4523 -0.6068,1.1284 -1.3576,1.7708 -3.7558,3.8798 -5.7575,5.0633 -1.0347,0.6118 -1.3724,0.6622 -1.7702,0.2643 z m -8.3698,-3.2051 c -0.293,-0.293 -0.3384,-0.6369 -0.1359,-1.0287 0.1606,-0.3105 0.2303,-0.335 1.4848,-0.5225 2.3829,-0.3559 4.3908,-1.1889 6.251,-2.593 0.9298,-0.7019 1.0981,-0.7641 1.5156,-0.5601 0.407,0.1989 0.5804,0.543 0.4787,0.9502 -0.1885,0.7551 -3.235,2.6266 -5.3666,3.2968 -1.1152,0.3506 -2.3263,0.6006 -3.2157,0.6637 l -0.7521,0.053 z m -4.3661,-0.1815 c -2.3524,-0.6056 -4.4522,-1.7196 -6.3325,-3.3593 -0.4095,-0.3572 -0.8,-0.7567 -0.8678,-0.8878 -0.3185,-0.6158 0.051,-1.2628 0.7219,-1.2628 0.301,0 0.4121,0.057 0.7897,0.4068 1.9848,1.8372 3.9408,2.9069 6.4032,3.5017 1.1069,0.2673 1.3861,0.4192 1.4835,0.8071 0.074,0.2962 -0.093,0.7484 -0.3366,0.9078 -0.2921,0.1914 -0.7964,0.1606 -1.8614,-0.1135 z m -12.792,-2.3373 c -0.4266,-0.2161 -1.6803,-2.2264 -2.433,-3.9013 -0.7408,-1.6486 -1.4966,-4.1862 -1.4966,-5.0247 0,-0.3564 0.035,-0.4419 0.2605,-0.6314 0.5135,-0.4321 1.2609,-0.2012 1.3906,0.4297 0.5715,2.781 1.4571,4.9745 2.9048,7.1947 0.6947,1.0653 0.7488,1.3133 0.3759,1.7226 -0.2842,0.3119 -0.6501,0.3887 -1.0022,0.2104 z m 34.3726,-3.0006 c -0.2637,-0.108 -0.5409,-0.5003 -0.5409,-0.7655 0,-0.1276 0.1911,-0.6774 0.4247,-1.2218 0.927,-2.1603 1.5197,-4.853 1.5219,-6.9139 0,-0.3539 0.042,-0.761 0.092,-0.9046 0.1965,-0.5635 0.9211,-0.7125 1.3549,-0.2787 0.2445,0.2445 0.2475,0.2591 0.2475,1.2097 0,1.5232 -0.2639,3.3379 -0.7264,4.9958 -0.4313,1.5458 -1.212,3.4489 -1.5254,3.7187 -0.2055,0.1769 -0.6173,0.2547 -0.848,0.1603 z m -6.583,-0.4799 c -0.2136,-0.2136 -0.2681,-0.3863 -0.2349,-0.7447 0.01,-0.09 0.206,-0.4611 0.4392,-0.8247 0.9317,-1.4524 1.5249,-2.8602 1.9051,-4.5215 0.29,-1.2672 0.3774,-3.3374 0.1986,-4.7049 -0.1445,-1.1052 -0.1276,-1.247 0.1823,-1.5328 0.4522,-0.417 1.1662,-0.2556 1.3413,0.3033 0.046,0.1475 0.1228,0.554 0.1701,0.9032 0.4068,3.002 -0.056,5.9957 -1.3429,8.6945 -0.4711,0.9876 -1.3898,2.4472 -1.6168,2.5687 -0.3066,0.1641 -0.8042,0.097 -1.042,-0.1411 z m -24.2358,-1.091 c -0.2993,-0.2992 -1.1558,-2.1097 -1.5079,-3.1872 -0.5439,-1.6647 -0.6799,-2.5874 -0.682,-4.6281 v -1.8059 l 0.2765,-0.2473 c 0.3676,-0.3287 0.7681,-0.3339 1.1213,-0.014 l 0.2574,0.2328 0.032,1.778 c 0.025,1.3944 0.069,1.9513 0.2071,2.5811 0.2767,1.2665 0.6782,2.4153 1.2116,3.4672 0.5759,1.1353 0.615,1.4203 0.2454,1.7899 -0.3322,0.3322 -0.8458,0.3472 -1.1591,0.034 z m 11.6374,-0.96 c -0.6151,-0.203 -0.9956,-0.4406 -1.3713,-0.8565 -0.6617,-0.7323 -0.8978,-1.5606 -0.8996,-3.1558 v -1.0795 h 0.965 0.965 l 0.03,1.0372 c 0.027,0.9153 0.055,1.0816 0.2416,1.4149 0.2576,0.4611 0.65,0.7382 1.1518,0.8134 1.9741,0.2961 2.723,-2.5084 1.0074,-3.7725 -0.2333,-0.172 -0.9576,-0.5726 -1.6095,-0.8904 -1.0122,-0.4935 -1.2675,-0.6598 -1.748,-1.139 -0.7296,-0.7275 -0.919,-1.2674 -0.919,-2.6194 0,-1.3662 0.2658,-2.198 0.9339,-2.9228 0.6931,-0.7519 2.0332,-1.1133 3.3933,-0.9151 1.9394,0.2827 2.9211,1.4898 2.9761,3.6597 l 0.02,0.8044 h -0.9737 -0.9737 l -0.052,-0.638 c -0.083,-1.0145 -0.4737,-1.601 -1.2144,-1.821 -0.3425,-0.1017 -0.5152,-0.1083 -0.8764,-0.033 -0.8901,0.1848 -1.3512,0.9137 -1.2641,1.9985 0.078,0.9718 0.5226,1.4088 2.1779,2.1405 2.0144,0.8905 2.8413,1.8227 3.053,3.442 0.269,2.058 -0.4691,3.7426 -1.9362,4.419 -0.4229,0.1949 -0.6075,0.2245 -1.5389,0.2467 -0.8552,0.02 -1.1503,-0.01 -1.5378,-0.133 z m -18.9239,-6.2313 c -0.5124,-0.2229 -0.5676,-0.4144 -0.5086,-1.7649 0.1128,-2.5803 0.6775,-5.0055 1.7195,-7.3848 0.4163,-0.9507 0.5979,-1.1408 1.0898,-1.1408 0.3932,0 0.6887,0.1999 0.8017,0.5422 0.1004,0.3044 0.044,0.5124 -0.4051,1.5034 -0.8688,1.9159 -1.538,5.0583 -1.5393,7.2278 -3e-4,0.5929 -0.1394,0.8473 -0.5589,1.0226 -0.3321,0.1387 -0.2662,0.1393 -0.5991,-0.01 z m 39.6159,-3.5638 c -0.2702,-0.1892 -0.3204,-0.3151 -0.5696,-1.4258 -0.4722,-2.1056 -1.4608,-4.4287 -2.669,-6.2718 -0.669,-1.0207 -0.7473,-1.3183 -0.4514,-1.7169 0.2138,-0.288 0.6987,-0.4298 1.0002,-0.2924 0.4615,0.2103 1.8159,2.4057 2.5739,4.1721 0.7661,1.7856 1.5392,4.5416 1.4139,5.0408 -0.1338,0.5332 -0.8519,0.8065 -1.298,0.494 z m -33.2935,-1.2849 c -0.4122,-0.2088 -0.531,-0.5915 -0.3617,-1.1648 0.2998,-1.0152 1.3316,-2.9143 2.2001,-4.0494 0.6423,-0.8396 1.9483,-2.1416 2.7944,-2.786 0.6608,-0.5033 0.8365,-0.5973 1.1308,-0.605 0.2922,-0.01 0.3882,0.035 0.5944,0.2662 0.2582,0.2889 0.3194,0.6545 0.1596,0.9531 -0.047,0.089 -0.438,0.4439 -0.8678,0.7893 -1.9733,1.5859 -3.468,3.6074 -4.3797,5.9235 -0.2801,0.7115 -0.7269,0.9483 -1.2701,0.6731 z m 26.6476,-1.3006 c -0.082,-0.048 -0.2644,-0.3147 -0.4049,-0.5929 -1.0481,-2.0765 -2.7883,-4.0458 -4.7009,-5.3201 -0.509,-0.3391 -0.9914,-0.675 -1.072,-0.7463 -0.2199,-0.1948 -0.273,-0.633 -0.1141,-0.9404 0.3852,-0.7448 1.1084,-0.5632 2.7978,0.7026 1.7612,1.3196 3.1959,2.961 4.2962,4.9149 0.5362,0.9522 0.6144,1.2235 0.4593,1.5946 -0.068,0.1633 -0.2009,0.338 -0.2949,0.3883 -0.2146,0.1148 -0.7688,0.1144 -0.9665,-9e-4 z m -29.3014,-5.6764 c -0.2199,-0.1278 -0.4079,-0.6211 -0.3428,-0.8996 0.1632,-0.6984 2.7831,-3.4641 4.4783,-4.7275 1.174,-0.8751 2.5297,-1.7045 2.9105,-1.7806 0.3519,-0.07 0.752,0.1065 0.9035,0.3993 0.305,0.5899 0.1153,0.8984 -0.9386,1.5262 -1.929,1.1491 -3.7898,2.7545 -5.2643,4.5421 -0.3943,0.4779 -0.7871,0.9065 -0.8729,0.9525 -0.204,0.1091 -0.6761,0.1025 -0.8737,-0.012 z m 11.1449,-1.7639 c -0.2832,-0.1726 -0.447,-0.5615 -0.3813,-0.9052 0.093,-0.4876 1.0909,-0.9144 3.0701,-1.3135 0.8407,-0.1695 1.2176,-0.1952 2.8324,-0.1935 1.8891,0 2.7319,0.095 3.8319,0.4214 0.7028,0.2087 0.9607,0.7204 0.658,1.3056 -0.216,0.4179 -0.5133,0.4545 -1.7149,0.2112 -2.3811,-0.4821 -4.9145,-0.3265 -7.1692,0.4403 -0.7122,0.2423 -0.7816,0.2443 -1.127,0.034 z m 18.582,-1.229 c -2.0703,-1.8126 -4.3179,-3.1788 -6.4918,-3.9461 -0.3997,-0.1411 -0.812,-0.3366 -0.9161,-0.4344 -0.2593,-0.2435 -0.325,-0.6581 -0.1562,-0.9846 0.2868,-0.5544 0.7147,-0.5686 2.0137,-0.067 1.1539,0.446 2.449,1.0876 3.4704,1.7195 1.7313,1.0709 3.6469,2.6854 3.7516,3.1618 0.07,0.3171 -0.1533,0.7912 -0.4318,0.918 -0.4296,0.1958 -0.6816,0.121 -1.2398,-0.3677 z m -19.5057,-4.2302 c -0.5527,-0.2391 -0.7089,-0.8493 -0.3322,-1.297 0.4675,-0.5557 3.4686,-1.1726 6.1421,-1.2626 1.7992,-0.061 3.4928,0.074 3.81,0.3023 0.5106,0.3677 0.5447,1.0362 0.071,1.3878 -0.2187,0.1623 -0.2726,0.164 -1.7459,0.057 -2.306,-0.1673 -4.5127,0.047 -6.6645,0.6463 -0.4191,0.1168 -0.8192,0.2276 -0.889,0.2463 -0.07,0.019 -0.246,-0.017 -0.3913,-0.08 z"
         style="fill:#5a62a1;stroke-width:0.0846667" />
      <path
         id="path1533"
         d="m 165.7894,240.6713 c -0.9583,-0.1021 -1.2094,-0.2028 -1.376,-0.5521 -0.1686,-0.3536 -0.069,-0.7523 0.2482,-0.9888 0.2173,-0.1622 0.2699,-0.1644 1.4774,-0.06 2.1862,0.1896 4.5686,-0.014 6.5931,-0.5626 0.4657,-0.1262 1.0261,-0.2456 1.2455,-0.2652 0.3498,-0.031 0.4253,-0.01 0.6138,0.1963 0.251,0.2707 0.2854,0.6984 0.081,1.0098 -0.2095,0.3198 -1.9223,0.8108 -3.8457,1.1025 -1.0742,0.1629 -3.9832,0.232 -5.0377,0.1197 z m -5.334,-1.2548 c -2.2954,-0.8823 -4.2201,-2.0213 -6.1574,-3.6441 -0.9809,-0.8217 -1.0816,-0.9525 -1.0816,-1.4056 0,-0.4616 0.2944,-0.7541 0.759,-0.7541 0.2788,0 0.4102,0.074 0.9054,0.5133 1.8991,1.6828 4.0803,3.0163 6.2096,3.7965 1.0719,0.3927 1.3085,0.5865 1.3085,1.0717 0,0.2752 -0.049,0.3898 -0.2356,0.5503 -0.3317,0.2853 -0.7054,0.2573 -1.7079,-0.128 z m 16.477,-1.1421 c -0.2251,-0.1248 -0.425,-0.4363 -0.4296,-0.6693 -0.01,-0.3577 0.2579,-0.6333 1.0711,-1.1143 1.8254,-1.0796 3.794,-2.7595 5.0219,-4.2853 0.9686,-1.2037 1.036,-1.2637 1.4214,-1.2637 0.489,0 0.7799,0.2571 0.7799,0.6891 0,0.4392 -0.062,0.5476 -0.8941,1.5546 -1.6178,1.9588 -3.919,3.8822 -5.9123,4.9419 -0.5441,0.2892 -0.75,0.3178 -1.0583,0.147 z m -8.1991,-3.1611 c -0.2872,-0.052 -0.5309,-0.4192 -0.5309,-0.8001 0,-0.4842 0.2665,-0.7172 0.8988,-0.7856 0.8925,-0.097 2.2598,-0.3883 3.0382,-0.6482 1.4597,-0.4873 2.5425,-1.0803 4.3908,-2.4048 0.5169,-0.3704 0.8258,-0.3829 1.1614,-0.047 0.3906,0.3906 0.3492,0.7848 -0.1308,1.2447 -1.1561,1.1078 -3.4909,2.3428 -5.5606,2.9413 -1.0365,0.2998 -2.8439,0.5764 -3.2669,0.5 z m -4.1715,-0.2766 c -2.687,-0.5843 -5.2046,-1.9106 -7.179,-3.782 -0.5841,-0.5537 -0.6104,-0.5952 -0.6104,-0.966 0,-0.4986 0.2781,-0.794 0.7474,-0.794 0.2731,0 0.417,0.09 1.0932,0.6872 1.9069,1.6829 3.6484,2.6093 6.0334,3.2096 0.9127,0.2297 1.1814,0.3315 1.3335,0.5054 0.3359,0.3838 0.2261,0.9446 -0.2311,1.1811 -0.298,0.1541 -0.2869,0.1545 -1.187,-0.041 z m -13.5345,-2.6257 c -0.399,-0.399 -1.2371,-1.7845 -1.9201,-3.1742 -0.6869,-1.3975 -1.3572,-3.3094 -1.6528,-4.714 -0.1649,-0.7834 -0.1755,-0.9397 -0.079,-1.172 0.131,-0.3162 0.563,-0.5532 0.8687,-0.4765 0.4499,0.113 0.565,0.3055 0.7922,1.3249 0.4861,2.1812 1.5899,4.7822 2.7763,6.5418 0.4579,0.6793 0.5575,0.8878 0.5575,1.1682 0,0.7187 -0.8194,1.0249 -1.3425,0.5018 z m 34.427,-2.9257 c -0.4689,-0.2545 -0.4289,-0.66 0.2211,-2.2381 0.7963,-1.9333 1.2609,-4.0649 1.3749,-6.3077 0.031,-0.6054 0.09,-1.1669 0.1315,-1.248 0.042,-0.081 0.195,-0.209 0.3409,-0.2844 0.3768,-0.1949 0.8612,-0.045 1.053,0.3258 0.2222,0.4297 0.073,2.5564 -0.3193,4.5509 -0.2994,1.5223 -1.1609,4.0787 -1.6584,4.9209 -0.2375,0.402 -0.7074,0.5173 -1.1437,0.2806 z m -6.2359,-0.2396 c -0.2459,-0.1363 -0.4261,-0.443 -0.4281,-0.7285 -8e-4,-0.1164 0.211,-0.5355 0.4706,-0.9314 1.571,-2.395 2.3258,-5.1334 2.2053,-8.001 -0.027,-0.6519 -0.093,-1.4244 -0.1468,-1.7165 -0.1163,-0.6365 -0.013,-0.9768 0.3528,-1.1661 0.3155,-0.1632 0.4895,-0.1548 0.8075,0.039 0.304,0.1854 0.4018,0.5018 0.5387,1.7429 0.3773,3.4224 -0.49,7.0846 -2.3463,9.9067 -0.6144,0.934 -0.9523,1.1327 -1.4537,0.8548 z m -24.4456,-1.2811 c -0.2905,-0.2906 -1.06,-1.9171 -1.4208,-3.0034 -0.5732,-1.7258 -0.8799,-3.9355 -0.7697,-5.5456 0.079,-1.1602 0.2208,-1.3895 0.8594,-1.3944 0.2933,0 0.3901,0.042 0.5778,0.2652 0.2226,0.2646 0.2247,0.2791 0.168,1.1642 -0.096,1.5058 0.1671,3.4362 0.6784,4.9673 0.1231,0.3686 0.4683,1.1846 0.7671,1.8133 0.5789,1.218 0.604,1.3837 0.2663,1.7568 -0.252,0.2785 -0.8367,0.2663 -1.1265,-0.023 z m 11.9095,-0.8527 c -1.7706,-0.4759 -2.5877,-1.825 -2.5255,-4.1695 l 0.024,-0.9022 h 0.9313 0.9313 l 0.042,1.1072 c 0.04,1.0372 0.057,1.13 0.2807,1.4671 0.2923,0.4412 0.7783,0.6809 1.3859,0.6835 1.0994,0 1.7145,-0.6898 1.7182,-1.9399 0,-1.1711 -0.4878,-1.7831 -2.0277,-2.5262 -2.4237,-1.1695 -3.0864,-1.921 -3.1974,-3.6252 -0.1207,-1.8549 0.5742,-3.3099 1.8579,-3.89 0.4627,-0.2091 0.6626,-0.2455 1.5211,-0.2773 0.8315,-0.031 1.0809,-0.01 1.5714,0.1404 1.0117,0.3073 1.6937,0.9701 2.0605,2.0024 0.2167,0.6099 0.3323,2.1815 0.168,2.2831 -0.056,0.034 -0.475,0.036 -0.9318,0 l -0.8306,-0.059 -0.06,-0.6039 c -0.097,-0.9861 -0.3721,-1.4606 -1.0191,-1.7592 -0.3982,-0.1838 -0.971,-0.1989 -1.4237,-0.037 -0.7039,0.251 -0.9846,0.7602 -0.9874,1.7908 0,0.6133 0.023,0.7233 0.2368,1.0411 0.3156,0.4699 0.8409,0.8321 1.8513,1.2766 2.3339,1.0268 3.1556,2.1111 3.1584,4.1678 0,2.1425 -0.9417,3.5 -2.6914,3.868 -0.6059,0.1275 -1.4841,0.1099 -2.0451,-0.041 z m -19.386,-6.4339 -0.2605,-0.2192 v -1.0042 c 0,-2.3782 0.605,-5.1491 1.6678,-7.6385 0.4044,-0.9472 0.6608,-1.2471 1.0669,-1.248 0.4009,-8e-4 0.8213,0.4248 0.8213,0.8316 0,0.081 -0.1671,0.5265 -0.3714,0.9909 -0.9593,2.1812 -1.4577,4.3687 -1.6249,7.1325 -0.056,0.9215 -0.066,0.9614 -0.3072,1.1641 -0.3217,0.2707 -0.6632,0.2675 -0.992,-0.01 z m 39.9985,-3.3322 c -0.326,-0.1334 -0.4556,-0.3935 -0.6705,-1.3453 -0.4957,-2.1957 -1.5063,-4.5796 -2.7486,-6.483 -0.6885,-1.055 -0.7372,-1.2834 -0.3551,-1.6655 0.1857,-0.1857 0.3269,-0.2475 0.5656,-0.2475 0.2673,0 0.3731,0.059 0.6627,0.3727 0.759,0.821 2.1216,3.4205 2.7559,5.2576 0.4037,1.169 0.8483,2.9127 0.8483,3.3266 0,0.392 -0.1339,0.6043 -0.4698,0.7446 -0.3224,0.1347 -0.3517,0.1367 -0.5885,0.04 z m -33.5981,-1.4476 c -0.367,-0.2887 -0.3699,-0.6312 -0.013,-1.5328 0.5145,-1.2994 1.3129,-2.6654 2.2444,-3.8399 0.8571,-1.0806 2.9385,-2.9331 3.4359,-3.0579 0.5283,-0.1326 0.9657,0.2089 0.9616,0.7507 0,0.4418 -0.035,0.4816 -0.9286,1.1756 -1.7736,1.377 -3.346,3.4542 -4.1893,5.5343 -0.17,0.4191 -0.4039,0.8477 -0.5199,0.9525 -0.2665,0.2406 -0.6978,0.2483 -0.9912,0.018 z m 26.8529,-1.2264 c -0.1466,-0.08 -0.3763,-0.4086 -0.6552,-0.9383 -0.2361,-0.4486 -0.6489,-1.123 -0.9172,-1.4987 -0.9801,-1.3723 -2.7909,-3.0668 -4.0425,-3.7829 -0.2543,-0.1455 -0.5396,-0.3627 -0.634,-0.4827 -0.2383,-0.303 -0.2239,-0.7435 0.033,-1.0001 0.3522,-0.3522 0.6104,-0.3595 1.219,-0.034 0.6277,0.3352 1.8849,1.2601 2.5559,1.8803 1.3087,1.2096 2.6552,2.9728 3.3489,4.3853 0.3871,0.7882 0.368,1.1666 -0.073,1.4353 -0.3191,0.1945 -0.5269,0.2035 -0.8351,0.036 z m -29.2995,-5.6753 c -0.4614,-0.2504 -0.5332,-0.7545 -0.1815,-1.2744 0.6733,-0.9951 2.5848,-2.9768 3.7988,-3.9383 1.4578,-1.1545 3.0597,-2.106 3.5457,-2.106 0.5763,0 0.9316,0.6506 0.6463,1.1835 -0.046,0.086 -0.4791,0.392 -0.9625,0.6799 -1.9325,1.1512 -4.0663,3.0121 -5.3871,4.6983 -0.7098,0.9062 -0.9527,1.0322 -1.4597,0.757 z m 10.9979,-1.819 c -0.2853,-0.2244 -0.3686,-0.6551 -0.1926,-0.9955 0.099,-0.1907 0.2586,-0.3047 0.6147,-0.4379 2.4361,-0.9115 5.5212,-1.1294 8.2605,-0.5837 1.1634,0.2318 1.4205,0.4081 1.4205,0.9738 0,0.2877 -0.049,0.4267 -0.2078,0.5851 -0.2532,0.2533 -0.455,0.259 -1.453,0.041 -2.2631,-0.494 -4.5685,-0.3924 -6.8684,0.3025 -1.1091,0.3351 -1.2778,0.3474 -1.5739,0.1145 z m 18.4745,-1.3218 c -1.7997,-1.6239 -4.1747,-3.0589 -6.2971,-3.8047 -0.7916,-0.2782 -1.143,-0.5748 -1.143,-0.9649 0,-0.3583 0.1235,-0.5655 0.4321,-0.7251 0.3231,-0.1671 0.5172,-0.1275 1.7693,0.3604 2.2761,0.8871 4.6327,2.3612 6.4301,4.0222 0.5173,0.478 0.6553,0.7551 0.5619,1.1274 -0.091,0.3629 -0.3474,0.5482 -0.7585,0.5482 -0.3378,0 -0.4254,-0.05 -0.9948,-0.5635 z m -19.532,-4.2203 c -0.2278,-0.1916 -0.2694,-0.2843 -0.2694,-0.6001 0,-0.5033 0.1731,-0.6562 1.0429,-0.9215 2.0594,-0.6282 3.9235,-0.8499 6.5294,-0.7768 2.145,0.06 2.3361,0.086 2.6277,0.3564 0.3911,0.3625 0.2356,1.1218 -0.2691,1.3137 -0.1373,0.052 -0.4698,0.048 -0.9439,-0.012 -1.0918,-0.139 -3.279,-0.1159 -4.542,0.048 -0.6054,0.078 -1.615,0.2769 -2.2437,0.4408 -1.6085,0.4193 -1.6139,0.4197 -1.9319,0.152 z"
         style="fill:#3a448f;stroke-width:0.0846667" />
      <path
         id="path1531"
         d="m 165.6624,240.5837 c -0.7855,-0.09 -1.0514,-0.1955 -1.1743,-0.4652 -0.1523,-0.3342 -0.1123,-0.6164 0.1202,-0.8489 l 0.2159,-0.2159 0.9906,0.072 c 2.7773,0.2007 4.9423,0.01 7.3081,-0.6543 0.4998,-0.1397 0.9697,-0.2261 1.0584,-0.1946 0.5482,0.1947 0.7281,0.8416 0.3364,1.2097 -0.3663,0.3441 -2.361,0.834 -4.3368,1.0651 -1.1652,0.1363 -3.4696,0.1528 -4.5185,0.032 z m -4.191,-0.9032 c -0.9422,-0.1719 -3.596,-1.4383 -5.0534,-2.4116 -1.4854,-0.992 -2.8755,-2.1375 -3.0877,-2.5444 -0.1619,-0.3106 -0.079,-0.683 0.2004,-0.903 0.3886,-0.3057 0.6343,-0.2288 1.3862,0.4338 1.937,1.7068 4.1539,3.0272 6.4522,3.8429 0.4077,0.1447 0.7229,0.3146 0.8255,0.4449 0.4211,0.5354 -0.041,1.2619 -0.7232,1.1374 z m 15.4825,-1.4717 c -0.2097,-0.1015 -0.3695,-0.41 -0.3695,-0.7131 0,-0.2844 0.2313,-0.4855 1.3054,-1.1352 0.5005,-0.3027 1.2401,-0.7971 1.6438,-1.0987 0.8949,-0.6688 2.764,-2.5091 3.4847,-3.431 0.5904,-0.7552 0.8279,-0.9253 1.1828,-0.8474 0.3451,0.076 0.5498,0.3408 0.5498,0.7116 0,0.2617 -0.1009,0.4467 -0.5848,1.0727 -1.3582,1.7568 -3.6576,3.7766 -5.674,4.984 -0.9221,0.5522 -1.1821,0.6295 -1.5382,0.4571 z m -8.3281,-3.2254 c -0.323,-0.1671 -0.4563,-0.5103 -0.3377,-0.8696 0.054,-0.162 0.1671,-0.332 0.2526,-0.3777 0.085,-0.046 0.5596,-0.1399 1.0536,-0.2093 1.5381,-0.2159 2.8304,-0.599 4.1538,-1.2316 0.8869,-0.4239 2.1138,-1.1949 2.7385,-1.7209 0.4297,-0.3619 0.8002,-0.4053 1.1447,-0.1343 0.18,0.1415 0.2231,0.2467 0.2231,0.5437 0,0.3281 -0.039,0.4022 -0.3598,0.679 -1.1717,1.0119 -3.2604,2.1625 -4.9009,2.7 -1.5491,0.5074 -3.5746,0.8243 -3.9679,0.6207 z m -4.191,-0.2393 c -1.8692,-0.4549 -3.5763,-1.1932 -5.0441,-2.1815 -1.048,-0.7057 -2.3201,-1.7977 -2.5004,-2.1463 -0.1658,-0.3207 -0.086,-0.6904 0.1964,-0.9128 0.3832,-0.3014 0.6337,-0.227 1.3128,0.3898 2.0002,1.817 4.1046,2.9163 6.6279,3.4625 0.7895,0.1709 1.0584,0.3663 1.0584,0.7689 0,0.3909 -0.072,0.5316 -0.3448,0.6726 -0.3031,0.1568 -0.4715,0.1499 -1.3062,-0.053 z m -13.3323,-2.5479 c -0.5803,-0.5406 -2.0063,-3.1335 -2.6812,-4.8751 -0.3815,-0.9847 -1.0469,-3.3908 -1.0469,-3.786 0,-0.3269 0.172,-0.6172 0.4288,-0.7235 0.2689,-0.1114 0.6966,-0.045 0.8425,0.1307 0.054,0.065 0.2251,0.6433 0.3809,1.2858 0.1558,0.6424 0.4213,1.5681 0.5901,2.0571 0.4125,1.1954 1.4295,3.238 2.1287,4.2756 0.6419,0.9526 0.7102,1.247 0.3725,1.6064 -0.2616,0.2785 -0.7332,0.292 -1.0154,0.029 z m 34.3118,-3.0535 c -0.3256,-0.3557 -0.3128,-0.5066 0.1324,-1.5633 0.9739,-2.312 1.4356,-4.3458 1.5874,-6.9933 0.065,-1.1338 0.144,-1.3036 0.6436,-1.3836 0.2711,-0.043 0.3485,-0.015 0.5715,0.2077 0.2406,0.2406 0.2579,0.2996 0.2576,0.8783 -8e-4,1.7475 -0.4323,4.3362 -1.0117,6.0694 -0.4271,1.2775 -0.9699,2.53 -1.205,2.7803 -0.2483,0.2642 -0.736,0.2665 -0.9758,0 z m -6.3206,-0.2867 c -0.3507,-0.3507 -0.296,-0.6082 0.3454,-1.6261 1.6054,-2.5476 2.3795,-5.7631 2.0619,-8.5647 -0.2079,-1.8337 -0.2072,-1.7188 -0.012,-1.9252 0.2383,-0.2514 0.5444,-0.319 0.8571,-0.1895 0.3455,0.1431 0.4021,0.2765 0.5457,1.2869 0.407,2.8633 -0.089,6.033 -1.3539,8.6594 -0.5094,1.0573 -1.3913,2.4445 -1.6065,2.5271 -0.3018,0.1158 -0.6178,0.053 -0.8382,-0.1679 z m -24.0993,-0.9835 c -0.483,-0.252 -1.6408,-2.9705 -2.029,-4.7639 -0.242,-1.1183 -0.3704,-2.6524 -0.3179,-3.7991 0.043,-0.9366 0.061,-1.0217 0.2629,-1.2234 0.301,-0.301 0.7653,-0.299 1.0264,0 0.1812,0.2106 0.1903,0.2902 0.1895,1.6467 0,2.3757 0.4096,4.1839 1.428,6.2835 0.5794,1.1944 0.622,1.4426 0.2976,1.7362 -0.2112,0.1912 -0.6095,0.2448 -0.8575,0.1154 z m 11.6014,-1.0406 c -1.2539,-0.3509 -2.0201,-1.2505 -2.2937,-2.6933 -0.043,-0.2291 -0.079,-0.8304 -0.079,-1.3363 v -0.9198 h 0.889 0.889 v 0.9187 c 0,0.9958 0.078,1.3402 0.404,1.7787 0.4451,0.599 1.5005,0.792 2.2285,0.4075 0.5742,-0.3032 0.8574,-0.8251 0.9063,-1.6702 0.036,-0.6279 0.02,-0.7138 -0.2297,-1.2214 -0.1513,-0.3074 -0.4055,-0.6587 -0.5818,-0.804 -0.1722,-0.1419 -0.8996,-0.5482 -1.6164,-0.9028 -1.1173,-0.5527 -1.3844,-0.7248 -1.871,-1.2055 -0.6798,-0.6714 -0.8439,-1.0644 -0.9096,-2.1779 -0.1,-1.6955 0.4093,-2.9968 1.4232,-3.6368 0.9331,-0.589 2.7633,-0.6707 3.8528,-0.1719 0.5163,0.2364 1.132,0.8157 1.3767,1.2955 0.2702,0.5296 0.4357,1.3082 0.4357,2.0501 v 0.6893 l -0.8644,-0.024 -0.8644,-0.024 -0.024,-0.4657 c -0.039,-0.7585 -0.1921,-1.1801 -0.5692,-1.5716 -0.8511,-0.8836 -2.3604,-0.6587 -2.8527,0.4251 -0.1063,0.234 -0.156,0.5454 -0.1573,0.9851 0,1.1699 0.4548,1.68 2.1928,2.4412 2.2472,0.9841 3.0675,2.0858 3.0624,4.1126 0,1.402 -0.3569,2.3563 -1.1304,3.0517 -0.5919,0.5322 -1.1808,0.7323 -2.264,0.7694 -0.6224,0.021 -1.028,-0.01 -1.3526,-0.099 z m -19.2801,-6.4247 c -0.2374,-0.2052 -0.2376,-0.206 -0.2202,-1.2017 0.044,-2.5128 0.587,-4.9804 1.6497,-7.4966 0.441,-1.0443 0.6215,-1.2564 1.0692,-1.2564 0.3329,0 0.6927,0.3442 0.6927,0.6627 0,0.1361 -0.1911,0.6929 -0.4247,1.2373 -0.8799,2.0505 -1.3953,4.2903 -1.5085,6.5557 -0.064,1.2817 -0.069,1.3064 -0.2984,1.5037 -0.2997,0.2578 -0.6581,0.2561 -0.9598,0 z m 39.8115,-3.4565 c -0.1782,-0.1547 -0.2655,-0.3894 -0.4644,-1.2489 -0.5476,-2.3657 -1.4314,-4.4428 -2.7263,-6.4075 -0.6288,-0.9541 -0.6945,-1.2118 -0.4033,-1.582 0.1417,-0.1801 0.2467,-0.2231 0.5447,-0.2231 0.3322,0 0.3984,0.036 0.6604,0.3598 0.7788,0.9624 2.0575,3.3867 2.6459,5.0165 0.388,1.0747 0.8842,2.9973 0.8842,3.4257 0,0.4461 -0.064,0.5809 -0.3447,0.7261 -0.3334,0.1724 -0.5413,0.155 -0.7965,-0.067 z m -33.4489,-1.372 c -0.3028,-0.3028 -0.2647,-0.6311 0.197,-1.6986 0.7785,-1.8001 1.7473,-3.2168 3.1888,-4.663 1.2139,-1.2179 2.1149,-1.8973 2.5163,-1.8973 0.4763,0 0.839,0.5118 0.6727,0.9491 -0.044,0.1153 -0.34,0.4126 -0.6583,0.6609 -2.0657,1.6112 -3.7555,3.8595 -4.6026,6.1236 -0.098,0.2627 -0.2608,0.5351 -0.3611,0.6054 -0.2816,0.1973 -0.7116,0.1611 -0.9528,-0.08 z m 26.8627,-1.1546 c -0.082,-0.048 -0.2981,-0.3822 -0.4794,-0.7427 -1.0237,-2.036 -3.0943,-4.2849 -5.0016,-5.4321 -0.7101,-0.4272 -0.8462,-0.5761 -0.8462,-0.9254 0,-0.405 0.1941,-0.6625 0.5499,-0.7292 0.2383,-0.045 0.3925,0 0.8515,0.2588 1.2889,0.7208 3.1469,2.3495 4.1539,3.6413 0.9665,1.2399 1.8953,2.8797 1.8953,3.3461 0,0.5158 -0.6551,0.8559 -1.1234,0.5832 z m -29.2452,-5.6655 c -0.3414,-0.1376 -0.4736,-0.6517 -0.268,-1.0422 0.054,-0.1017 0.4103,-0.5659 0.7927,-1.0316 1.4076,-1.7141 3.4206,-3.4459 5.3329,-4.5879 1.0475,-0.6255 1.1025,-0.6456 1.4529,-0.5299 0.3229,0.1065 0.4521,0.2953 0.4521,0.6603 0,0.4141 -0.076,0.5082 -0.7083,0.8754 -0.986,0.5727 -2.031,1.2982 -2.8234,1.9602 -0.8921,0.7454 -2.3599,2.258 -2.9453,3.0352 -0.5376,0.7139 -0.8081,0.8529 -1.2856,0.6605 z m 10.9338,-1.9006 c -0.2584,-0.2584 -0.278,-0.701 -0.042,-0.9541 0.4508,-0.4839 2.8267,-1.0464 4.963,-1.1749 1.5026,-0.091 4.2986,0.2631 4.8445,0.6127 0.5816,0.3722 0.3341,1.3008 -0.3467,1.3008 -0.1537,0 -0.6204,-0.079 -1.0372,-0.1757 -0.5641,-0.1307 -1.1687,-0.1872 -2.3663,-0.2212 -1.839,-0.052 -3.0006,0.094 -4.4608,0.562 -0.9896,0.317 -1.2785,0.3264 -1.5544,0.05 z m 19.2215,-0.7189 c -0.094,-0.038 -0.4327,-0.3066 -0.7527,-0.5965 -1.7277,-1.5658 -3.9487,-2.9048 -6.1883,-3.731 -0.9361,-0.3453 -1.143,-0.5123 -1.143,-0.9224 0,-1.0458 0.8973,-0.9518 3.5983,0.3772 1.8707,0.9204 3.7014,2.1721 4.9742,3.4009 0.3998,0.3859 0.4868,0.52 0.4868,0.75 0,0.3965 -0.071,0.5366 -0.3447,0.678 -0.2664,0.1378 -0.3795,0.1456 -0.6306,0.044 z m -20.2459,-4.7773 c -0.3019,-0.2597 -0.3208,-0.7176 -0.042,-1.0146 0.3078,-0.3277 2.372,-0.8463 4.2873,-1.0771 1.0605,-0.1278 3.7457,-0.1301 4.6971,0 0.5742,0.076 0.7596,0.137 0.9271,0.3045 0.3014,0.3014 0.2882,0.7606 -0.03,1.0341 -0.2277,0.1959 -0.2716,0.2024 -0.9271,0.1372 -0.3785,-0.038 -1.5263,-0.065 -2.5508,-0.061 -2.0788,0.01 -2.8219,0.1015 -4.6782,0.5877 -0.6173,0.1617 -1.1962,0.294 -1.2865,0.294 -0.09,0 -0.2692,-0.09 -0.3975,-0.2007 z"
         style="fill:#283385;stroke-width:0.0846667" />
    </g>
  </g>
</svg>
