<?xml version="1.0" encoding="UTF-8" standalone="no"?>
<!-- Created with Inkscape (http://www.inkscape.org/) -->

<svg
   width="43.2647mm"
   height="43.2647mm"
   viewBox="0 0 43.2647 43.2647"
   version="1.1"
   id="svg919">
  <defs
     id="defs913" />
  <metadata
     id="metadata916">
  </metadata>
  <g
     id="layer1"
     transform="translate(-146.1705,-198.3114)">
    <g
       id="g1529"
       transform="translate(-0.0185991,0.0509009)">
      <path
         style="fill:#f6dfa4;stroke-width:0.0846667;stroke:#ffcc00;fill-opacity:0.9921569"
         d="m 165.636,240.5574 c -0.7855,-0.09 -1.0514,-0.1955 -1.1743,-0.4652 -0.1523,-0.3342 -0.1123,-0.6164 0.1202,-0.8489 l 0.2159,-0.2159 0.9906,0.072 c 2.7773,0.2007 4.9423,0.01 7.3081,-0.6543 0.4998,-0.1397 0.9697,-0.2261 1.0584,-0.1946 0.5482,0.1947 0.7281,0.8416 0.3364,1.2097 -0.3663,0.3441 -2.361,0.834 -4.3368,1.0651 -1.1652,0.1363 -3.4696,0.1528 -4.5185,0.032 z m -4.191,-0.9032 c -0.9422,-0.1719 -3.596,-1.4383 -5.0534,-2.4116 -1.4854,-0.992 -2.8755,-2.1375 -3.0877,-2.5444 -0.1619,-0.3106 -0.079,-0.683 0.2004,-0.903 0.3886,-0.3057 0.6343,-0.2288 1.3862,0.4338 1.937,1.7068 4.1539,3.0272 6.4522,3.8429 0.4077,0.1447 0.7229,0.3146 0.8255,0.4449 0.4211,0.5354 -0.041,1.2619 -0.7232,1.1374 z m 15.4825,-1.4717 c -0.2097,-0.1015 -0.3695,-0.41 -0.3695,-0.7131 0,-0.2844 0.2313,-0.4855 1.3054,-1.1352 0.5005,-0.3027 1.2401,-0.7971 1.6438,-1.0987 0.8949,-0.6688 2.764,-2.5091 3.4847,-3.431 0.5904,-0.7552 0.8279,-0.9253 1.1828,-0.8474 0.3451,0.076 0.5498,0.3408 0.5498,0.7116 0,0.2617 -0.1009,0.4467 -0.5848,1.0727 -1.3582,1.7568 -3.6576,3.7766 -5.674,4.984 -0.9221,0.5522 -1.1821,0.6295 -1.5382,0.4571 z m -8.3281,-3.2254 c -0.323,-0.1671 -0.4563,-0.5103 -0.3377,-0.8696 0.054,-0.162 0.1671,-0.332 0.2526,-0.3777 0.085,-0.046 0.5596,-0.1399 1.0536,-0.2093 1.5381,-0.2159 2.8304,-0.599 4.1538,-1.2316 0.8869,-0.4239 2.1138,-1.1949 2.7385,-1.7209 0.4297,-0.3619 0.8002,-0.4053 1.1447,-0.1343 0.18,0.1415 0.2231,0.2467 0.2231,0.5437 0,0.3281 -0.039,0.4022 -0.3598,0.679 -1.1717,1.0119 -3.2604,2.1625 -4.9009,2.7 -1.5491,0.5074 -3.5746,0.8243 -3.9679,0.6207 z m -4.191,-0.2393 c -1.8692,-0.4549 -3.5763,-1.1932 -5.0441,-2.1815 -1.048,-0.7057 -2.3201,-1.7977 -2.5004,-2.1463 -0.1658,-0.3207 -0.086,-0.6904 0.1964,-0.9128 0.3832,-0.3014 0.6337,-0.227 1.3128,0.3898 2.0002,1.817 4.1046,2.9163 6.6279,3.4625 0.7895,0.1709 1.0584,0.3663 1.0584,0.7689 0,0.3909 -0.072,0.5316 -0.3448,0.6726 -0.3031,0.1568 -0.4715,0.1499 -1.3062,-0.053 z m -13.3323,-2.5479 c -0.5803,-0.5406 -2.0063,-3.1335 -2.6812,-4.8751 -0.3815,-0.9847 -1.0469,-3.3908 -1.0469,-3.786 0,-0.3269 0.172,-0.6172 0.4288,-0.7235 0.2689,-0.1114 0.6966,-0.045 0.8425,0.1307 0.054,0.065 0.2251,0.6433 0.3809,1.2858 0.1558,0.6424 0.4213,1.5681 0.5901,2.0571 0.4125,1.1954 1.4295,3.238 2.1287,4.2756 0.6419,0.9526 0.7102,1.247 0.3725,1.6064 -0.2616,0.2785 -0.7332,0.292 -1.0154,0.029 z m 34.3118,-3.0535 c -0.3256,-0.3557 -0.3128,-0.5066 0.1324,-1.5633 0.9739,-2.312 1.4356,-4.3458 1.5874,-6.9933 0.065,-1.1338 0.144,-1.3036 0.6436,-1.3836 0.2711,-0.043 0.3485,-0.015 0.5715,0.2077 0.2406,0.2406 0.2579,0.2996 0.2576,0.8783 -8e-4,1.7475 -0.4323,4.3362 -1.0117,6.0694 -0.4271,1.2775 -0.9699,2.53 -1.205,2.7803 -0.2483,0.2642 -0.736,0.2665 -0.9758,0 z m -6.3206,-0.2867 c -0.3507,-0.3507 -0.296,-0.6082 0.3454,-1.6261 1.6054,-2.5476 2.3795,-5.7631 2.0619,-8.5647 -0.2079,-1.8337 -0.2072,-1.7188 -0.012,-1.9252 0.2383,-0.2514 0.5444,-0.319 0.8571,-0.1895 0.3455,0.1431 0.4021,0.2765 0.5457,1.2869 0.407,2.8633 -0.089,6.033 -1.3539,8.6594 -0.5094,1.0573 -1.3913,2.4445 -1.6065,2.5271 -0.3018,0.1158 -0.6178,0.053 -0.8382,-0.1679 z m -24.0993,-0.9835 c -0.483,-0.252 -1.6408,-2.9705 -2.029,-4.7639 -0.242,-1.1183 -0.3704,-2.6524 -0.3179,-3.7991 0.043,-0.9366 0.061,-1.0217 0.2629,-1.2234 0.301,-0.301 0.7653,-0.299 1.0264,0 0.1812,0.2106 0.1903,0.2902 0.1895,1.6467 0,2.3757 0.4096,4.1839 1.428,6.2835 0.5794,1.1944 0.622,1.4426 0.2976,1.7362 -0.2112,0.1912 -0.6095,0.2448 -0.8575,0.1154 z m 11.6014,-1.0406 c -1.2539,-0.3509 -2.0201,-1.2505 -2.2937,-2.6933 -0.043,-0.2291 -0.079,-0.8304 -0.079,-1.3363 v -0.9198 h 0.889 0.889 v 0.9187 c 0,0.9958 0.078,1.3402 0.404,1.7787 0.4451,0.599 1.5005,0.792 2.2285,0.4075 0.5742,-0.3032 0.8574,-0.8251 0.9063,-1.6702 0.036,-0.6279 0.02,-0.7138 -0.2297,-1.2214 -0.1513,-0.3074 -0.4055,-0.6587 -0.5818,-0.804 -0.1722,-0.1419 -0.8996,-0.5482 -1.6164,-0.9028 -1.1173,-0.5527 -1.3844,-0.7248 -1.871,-1.2055 -0.6798,-0.6714 -0.8439,-1.0644 -0.9096,-2.1779 -0.1,-1.6955 0.4093,-2.9968 1.4232,-3.6368 0.9331,-0.589 2.7633,-0.6707 3.8528,-0.1719 0.5163,0.2364 1.132,0.8157 1.3767,1.2955 0.2702,0.5296 0.4357,1.3082 0.4357,2.0501 v 0.6893 l -0.8644,-0.024 -0.8644,-0.024 -0.024,-0.4657 c -0.039,-0.7585 -0.1921,-1.1801 -0.5692,-1.5716 -0.8511,-0.8836 -2.3604,-0.6587 -2.8527,0.4251 -0.1063,0.234 -0.156,0.5454 -0.1573,0.9851 0,1.1699 0.4548,1.68 2.1928,2.4412 2.2472,0.9841 3.0675,2.0858 3.0624,4.1126 0,1.402 -0.3569,2.3563 -1.1304,3.0517 -0.5919,0.5322 -1.1808,0.7323 -2.264,0.7694 -0.6224,0.021 -1.028,-0.01 -1.3526,-0.099 z m -19.2801,-6.4247 c -0.2374,-0.2052 -0.2376,-0.206 -0.2202,-1.2017 0.044,-2.5128 0.587,-4.9804 1.6497,-7.4966 0.441,-1.0443 0.6215,-1.2564 1.0692,-1.2564 0.3329,0 0.6927,0.3442 0.6927,0.6627 0,0.1361 -0.1911,0.6929 -0.4247,1.2373 -0.8799,2.0505 -1.3953,4.2903 -1.5085,6.5557 -0.064,1.2817 -0.069,1.3064 -0.2984,1.5037 -0.2997,0.2578 -0.6581,0.2561 -0.9598,0 z m 39.8115,-3.4565 c -0.1782,-0.1547 -0.2655,-0.3894 -0.4644,-1.2489 -0.5476,-2.3657 -1.4314,-4.4428 -2.7263,-6.4075 -0.6288,-0.9541 -0.6945,-1.2118 -0.4033,-1.582 0.1417,-0.1801 0.2467,-0.2231 0.5447,-0.2231 0.3322,0 0.3984,0.036 0.6604,0.3598 0.7788,0.9624 2.0575,3.3867 2.6459,5.0165 0.388,1.0747 0.8842,2.9973 0.8842,3.4257 0,0.4461 -0.064,0.5809 -0.3447,0.7261 -0.3334,0.1724 -0.5413,0.155 -0.7965,-0.067 z m -33.4489,-1.372 c -0.3028,-0.3028 -0.2647,-0.6311 0.197,-1.6986 0.7785,-1.8001 1.7473,-3.2168 3.1888,-4.663 1.2139,-1.2179 2.1149,-1.8973 2.5163,-1.8973 0.4763,0 0.839,0.5118 0.6727,0.9491 -0.044,0.1153 -0.34,0.4126 -0.6583,0.6609 -2.0657,1.6112 -3.7555,3.8595 -4.6026,6.1236 -0.098,0.2627 -0.2608,0.5351 -0.3611,0.6054 -0.2816,0.1973 -0.7116,0.1611 -0.9528,-0.08 z m 26.8627,-1.1546 c -0.082,-0.048 -0.2981,-0.3822 -0.4794,-0.7427 -1.0237,-2.036 -3.0943,-4.2849 -5.0016,-5.4321 -0.7101,-0.4272 -0.8462,-0.5761 -0.8462,-0.9254 0,-0.405 0.1941,-0.6625 0.5499,-0.7292 0.2383,-0.045 0.3925,0 0.8515,0.2588 1.2889,0.7208 3.1469,2.3495 4.1539,3.6413 0.9665,1.2399 1.8953,2.8797 1.8953,3.3461 0,0.5158 -0.6551,0.8559 -1.1234,0.5832 z m -29.2452,-5.6655 c -0.3414,-0.1376 -0.4736,-0.6517 -0.268,-1.0422 0.054,-0.1017 0.4103,-0.5659 0.7927,-1.0316 1.4076,-1.7141 3.4206,-3.4459 5.3329,-4.5879 1.0475,-0.6255 1.1025,-0.6456 1.4529,-0.5299 0.3229,0.1065 0.4521,0.2953 0.4521,0.6603 0,0.4141 -0.076,0.5082 -0.7083,0.8754 -0.986,0.5727 -2.031,1.2982 -2.8234,1.9602 -0.8921,0.7454 -2.3599,2.258 -2.9453,3.0352 -0.5376,0.7139 -0.8081,0.8529 -1.2856,0.6605 z m 10.9338,-1.9006 c -0.2584,-0.2584 -0.278,-0.701 -0.042,-0.9541 0.4508,-0.4839 2.8267,-1.0464 4.963,-1.1749 1.5026,-0.091 4.2986,0.2631 4.8445,0.6127 0.5816,0.3722 0.3341,1.3008 -0.3467,1.3008 -0.1537,0 -0.6204,-0.079 -1.0372,-0.1757 -0.5641,-0.1307 -1.1687,-0.1872 -2.3663,-0.2212 -1.839,-0.052 -3.0006,0.094 -4.4608,0.562 -0.9896,0.317 -1.2785,0.3264 -1.5544,0.05 z m 19.2215,-0.7189 c -0.094,-0.038 -0.4327,-0.3066 -0.7527,-0.5965 -1.7277,-1.5658 -3.9487,-2.9048 -6.1883,-3.731 -0.9361,-0.3453 -1.143,-0.5123 -1.143,-0.9224 0,-1.0458 0.8973,-0.9518 3.5983,0.3772 1.8707,0.9204 3.7014,2.1721 4.9742,3.4009 0.3998,0.3859 0.4868,0.52 0.4868,0.75 0,0.3965 -0.071,0.5366 -0.3447,0.678 -0.2664,0.1378 -0.3795,0.1456 -0.6306,0.044 z m -20.2459,-4.7773 c -0.3019,-0.2597 -0.3208,-0.7176 -0.042,-1.0146 0.3078,-0.3277 2.372,-0.8463 4.2873,-1.0771 1.0605,-0.1278 3.7457,-0.1301 4.6971,0 0.5742,0.076 0.7596,0.137 0.9271,0.3045 0.3014,0.3014 0.2882,0.7606 -0.03,1.0341 -0.2277,0.1959 -0.2716,0.2024 -0.9271,0.1372 -0.3785,-0.038 -1.5263,-0.065 -2.5508,-0.061 -2.0788,0.01 -2.8219,0.1015 -4.6782,0.5877 -0.6173,0.1617 -1.1962,0.294 -1.2865,0.294 -0.09,0 -0.2692,-0.09 -0.3975,-0.2007 z"
         id="path1531" />
    </g>
  </g>
</svg>
